<svg xmlns="http://www.w3.org/2000/svg" version="1.1" xmlns:xlink="http://www.w3.org/1999/xlink" xmlns:svgjs="http://svgjs.dev/svgjs" width="1500" height="428" viewBox="0 0 1500 428"><g transform="matrix(1,0,0,1,-0.9090909090909918,0.7110003259955135)"><svg viewBox="0 0 396 113" data-background-color="#ffffff" preserveAspectRatio="xMidYMid meet" height="428" width="1500" xmlns="http://www.w3.org/2000/svg" xmlns:xlink="http://www.w3.org/1999/xlink"><g id="tight-bounds" transform="matrix(1,0,0,1,0.2400000000000091,-0.1877173757885373)"><svg viewBox="0 0 395.52 113.37543475157706" height="113.37543475157706" width="395.52"><g><svg viewBox="0 0 631.6828630882758 181.07129659120702" height="113.37543475157706" width="395.52"><g transform="matrix(1,0,0,1,0,12.887813182136355)"><svg viewBox="0 0 395.52 155.2956702269343" height="155.2956702269343" width="395.52"><g id="textblocktransform"><svg viewBox="0 0 395.52 155.2956702269343" height="155.2956702269343" width="395.52" id="textblock"><g><svg viewBox="0 0 395.52 116.68184503521927" height="116.68184503521927" width="395.52"><g transform="matrix(1,0,0,1,0,0)"><svg width="395.52" viewBox="0.68 -37.94 128.92082180132797 38.04" height="116.68184503521927" data-palette-color="url(#738073e4-d289-4154-8b17-2f9815aaa89e)"><g class="wordmark-text-0" data-fill-palette-color="primary" id="text-0"></g></svg></g></svg></g><g transform="matrix(1,0,0,1,163.31020799999996,144.2276282837537)"><svg viewBox="0 0 232.20979200000002 11.068041943180626" height="11.068041943180626" width="232.20979200000002"><g transform="matrix(1,0,0,1,0,0)"><svg width="232.20979200000002" viewBox="0.95 -33.48 715.3399999999999 34.11" height="11.068041943180626" data-palette-color="#636365"><path d="M15.5-9.6L11.93-9.6 0.95-31.95 5.33-31.95 11.2-19.73 13.55-14.43 13.88-14.43 16.23-19.73 22.08-31.95 26.48-31.95 15.5-9.6ZM15.75 0L11.68 0 11.68-13.48 15.75-13.48 15.75 0ZM36.5 0.63L36.5 0.63Q31.25 0.63 28.54-2.21 25.82-5.05 25.82-10.38L25.82-10.38 25.82-14.1Q25.82-19.4 28.55-22.23 31.27-25.05 36.5-25.05L36.5-25.05Q41.75-25.05 44.46-22.23 47.17-19.4 47.17-14.1L47.17-14.1 47.17-10.38Q47.17-5.05 44.46-2.21 41.75 0.63 36.5 0.63ZM36.5-2.68L36.5-2.68Q39.75-2.68 41.44-4.6 43.12-6.53 43.12-10.15L43.12-10.15 43.12-14.33Q43.12-17.93 41.44-19.84 39.75-21.75 36.5-21.75L36.5-21.75Q33.27-21.75 31.57-19.84 29.87-17.93 29.87-14.33L29.87-14.33 29.87-10.15Q29.87-6.53 31.57-4.6 33.27-2.68 36.5-2.68ZM52.5-24.4L56.52-24.4 56.52-9.22Q56.52-7.3 57.06-5.86 57.6-4.42 58.82-3.64 60.05-2.85 62.12-2.85L62.12-2.85Q64.07-2.85 65.47-3.56 66.87-4.28 67.76-5.53 68.65-6.78 68.97-8.35L68.97-8.35 69.7-5.48 68.82-5.48Q68.45-3.83 67.45-2.46 66.45-1.1 64.76-0.29 63.07 0.53 60.6 0.53L60.6 0.53Q57.72 0.53 55.93-0.56 54.15-1.65 53.32-3.74 52.5-5.83 52.5-8.78L52.5-8.78 52.5-24.4ZM68.8-24.4L72.84-24.4 72.84 0 68.8 0 68.97-5.85 68.8-6.1 68.8-24.4ZM83.29-14.93L83.29-14.93 82.37-18.05 83.37-18.1Q84.17-21.2 86.12-22.99 88.07-24.78 91.29-24.78L91.29-24.78Q92.09-24.78 92.73-24.65 93.37-24.53 93.87-24.35L93.87-24.35 94.12-20.43Q93.49-20.63 92.73-20.75 91.97-20.88 91.04-20.88L91.04-20.88Q88.29-20.88 86.26-19.35 84.22-17.82 83.29-14.93ZM83.49 0L79.44 0 79.44-24.4 83.39-24.4 83.19-17.2 83.49-16.9 83.49 0ZM124.34-10.63L115.16-10.63 115.16-14.08 124.24-14.08Q127.51-14.08 128.99-15.71 130.46-17.35 130.46-20.23L130.46-20.23 130.46-22.4Q130.46-25.33 129-26.93 127.54-28.53 124.29-28.53L124.29-28.53 115.14-28.53 115.14-31.95 124.36-31.95Q129.71-31.95 132.15-29.44 134.59-26.93 134.59-22.53L134.59-22.53 134.59-20.13Q134.59-15.68 132.13-13.15 129.66-10.63 124.34-10.63L124.34-10.63ZM116.56 0L112.46 0 112.46-31.95 116.54-31.95 116.54-13.05 116.56-11.2 116.56 0ZM157.86 0L153.84 0 154.01-5.93 153.86-6.55 153.86-14.33 153.89-15.75Q153.89-18.73 152.37-20.15 150.86-21.58 147.59-21.58L147.59-21.58Q144.96-21.58 142.77-20.83 140.59-20.08 138.89-19.07L138.89-19.07 139.26-22.53Q140.21-23.1 141.52-23.66 142.84-24.23 144.52-24.6 146.21-24.98 148.24-24.98L148.24-24.98Q150.86-24.98 152.7-24.34 154.54-23.7 155.67-22.5 156.81-21.3 157.34-19.6 157.86-17.9 157.86-15.8L157.86-15.8 157.86 0ZM145.44 0.53L145.44 0.53Q141.81 0.53 139.87-1.24 137.94-3 137.94-6.28L137.94-6.28 137.94-7Q137.94-10.38 140.02-12.04 142.11-13.7 146.66-14.35L146.66-14.35 154.39-15.45 154.61-12.5 147.16-11.43Q144.36-11.03 143.16-10.06 141.96-9.1 141.96-7.23L141.96-7.23 141.96-6.83Q141.96-4.9 143.15-3.88 144.34-2.85 146.71-2.85L146.71-2.85Q148.81-2.85 150.31-3.58 151.81-4.3 152.74-5.53 153.66-6.75 153.99-8.25L153.99-8.25 154.61-5.5 153.84-5.5Q153.49-3.9 152.52-2.53 151.56-1.15 149.84-0.31 148.11 0.53 145.44 0.53ZM172.71 0.5L172.71 0.5Q169.88 0.5 168.16-0.35 166.43-1.2 165.66-2.93 164.88-4.65 164.88-7.23L164.88-7.23 164.88-22.63 168.88-22.63 168.88-7.7Q168.88-5.3 169.98-4.16 171.08-3.03 173.68-3.03L173.68-3.03Q175.16-3.03 176.52-3.35 177.88-3.68 179.08-4.28L179.08-4.28 178.71-0.8Q177.53-0.2 175.96 0.15 174.38 0.5 172.71 0.5ZM178.46-20.8L160.88-20.8 160.88-24.05 178.83-24.05 178.46-20.8ZM168.78-23.65L164.91-23.65 164.88-30.5 168.96-31.03 168.78-23.65ZM203.98 0L199.93 0 199.93-15.18Q199.93-17.15 199.39-18.57 198.86-20 197.64-20.79 196.43-21.58 194.33-21.58L194.33-21.58Q192.41-21.58 191.01-20.85 189.61-20.13 188.74-18.89 187.88-17.65 187.53-16.07L187.53-16.07 186.63-18.95 187.68-18.95Q188.06-20.6 189.06-21.96 190.06-23.33 191.74-24.14 193.43-24.95 195.86-24.95L195.86-24.95Q198.76-24.95 200.54-23.85 202.33-22.75 203.16-20.69 203.98-18.63 203.98-15.63L203.98-15.63 203.98 0ZM187.66 0L183.61 0 183.61-33.13 187.63-33.13 187.63-25.18 187.51-18.18 187.66-17.85 187.66 0ZM233.03 0.5L233.03 0.5Q230.2 0.5 228.48-0.35 226.75-1.2 225.98-2.93 225.2-4.65 225.2-7.23L225.2-7.23 225.2-22.63 229.2-22.63 229.2-7.7Q229.2-5.3 230.3-4.16 231.4-3.03 234-3.03L234-3.03Q235.48-3.03 236.84-3.35 238.2-3.68 239.4-4.28L239.4-4.28 239.03-0.8Q237.85-0.2 236.28 0.15 234.7 0.5 233.03 0.5ZM238.78-20.8L221.2-20.8 221.2-24.05 239.15-24.05 238.78-20.8ZM229.1-23.65L225.23-23.65 225.2-30.5 229.28-31.03 229.1-23.65ZM252.97 0.63L252.97 0.63Q247.72 0.63 245.01-2.21 242.3-5.05 242.3-10.38L242.3-10.38 242.3-14.1Q242.3-19.4 245.02-22.23 247.75-25.05 252.97-25.05L252.97-25.05Q258.22-25.05 260.94-22.23 263.65-19.4 263.65-14.1L263.65-14.1 263.65-10.38Q263.65-5.05 260.94-2.21 258.22 0.63 252.97 0.63ZM252.97-2.68L252.97-2.68Q256.22-2.68 257.91-4.6 259.6-6.53 259.6-10.15L259.6-10.15 259.6-14.33Q259.6-17.93 257.91-19.84 256.22-21.75 252.97-21.75L252.97-21.75Q249.75-21.75 248.05-19.84 246.35-17.93 246.35-14.33L246.35-14.33 246.35-10.15Q246.35-6.53 248.05-4.6 249.75-2.68 252.97-2.68ZM285.29 0L281.09 0 291.09-31.95 297.64-31.95 307.67 0 303.47 0 294.69-29.15 294.07-29.15 285.29 0ZM301.64-9.43L287.09-9.43 287.09-12.88 301.64-12.88 301.64-9.43ZM320.94 0.55L320.94 0.55Q315.69 0.55 313.13-2.29 310.57-5.13 310.57-10.33L310.57-10.33 310.57-14.13Q310.57-19.35 313.14-22.16 315.72-24.98 320.94-24.98L320.94-24.98Q322.49-24.98 323.77-24.69 325.04-24.4 326.05-23.94 327.07-23.48 327.77-22.98L327.77-22.98 328.12-19.45Q326.94-20.35 325.33-20.98 323.72-21.6 321.54-21.6L321.54-21.6Q318.04-21.6 316.33-19.66 314.62-17.73 314.62-14.03L314.62-14.03 314.62-10.43Q314.62-6.8 316.33-4.85 318.04-2.9 321.54-2.9L321.54-2.9Q323.79-2.9 325.43-3.53 327.07-4.15 328.34-5.05L328.34-5.05 327.97-1.48Q326.87-0.73 325.09-0.09 323.32 0.55 320.94 0.55ZM351.74 0L347.71 0 347.89-5.93 347.74-6.55 347.74-14.33 347.76-15.75Q347.76-18.73 346.25-20.15 344.74-21.58 341.46-21.58L341.46-21.58Q338.84-21.58 336.65-20.83 334.46-20.08 332.76-19.07L332.76-19.07 333.14-22.53Q334.09-23.1 335.4-23.66 336.71-24.23 338.4-24.6 340.09-24.98 342.11-24.98L342.11-24.98Q344.74-24.98 346.58-24.34 348.41-23.7 349.55-22.5 350.69-21.3 351.21-19.6 351.74-17.9 351.74-15.8L351.74-15.8 351.74 0ZM339.31 0.53L339.31 0.53Q335.69 0.53 333.75-1.24 331.81-3 331.81-6.28L331.81-6.28 331.81-7Q331.81-10.38 333.9-12.04 335.99-13.7 340.54-14.35L340.54-14.35 348.26-15.45 348.49-12.5 341.04-11.43Q338.24-11.03 337.04-10.06 335.84-9.1 335.84-7.23L335.84-7.23 335.84-6.83Q335.84-4.9 337.03-3.88 338.21-2.85 340.59-2.85L340.59-2.85Q342.69-2.85 344.19-3.58 345.69-4.3 346.61-5.53 347.54-6.75 347.86-8.25L347.86-8.25 348.49-5.5 347.71-5.5Q347.36-3.9 346.4-2.53 345.44-1.15 343.71-0.31 341.99 0.53 339.31 0.53ZM365.99 0.53L365.99 0.53Q361.59 0.53 359.29-2.2 356.99-4.93 356.99-10.15L356.99-10.15 356.99-14.18Q356.99-19.43 359.31-22.19 361.64-24.95 366.16-24.95L366.16-24.95Q368.41-24.95 370.06-24.19 371.71-23.43 372.74-22.05 373.76-20.68 374.11-18.8L374.11-18.8 375.44-18.8 374.24-15.08Q374.16-17.23 373.27-18.69 372.39-20.15 370.87-20.9 369.36-21.65 367.41-21.65L367.41-21.65Q364.31-21.65 362.67-19.85 361.04-18.05 361.04-14.55L361.04-14.55 361.04-9.9Q361.04-6.45 362.67-4.65 364.31-2.85 367.41-2.85L367.41-2.85Q369.26-2.85 370.69-3.56 372.11-4.28 373.05-5.54 373.99-6.8 374.34-8.4L374.34-8.4 375.34-5.5 374.14-5.5Q373.79-3.85 372.8-2.48 371.81-1.1 370.15-0.29 368.49 0.53 365.99 0.53ZM378.19 0L374.14 0 374.31-5.9 374.24-7.2 374.24-17.4 374.26-18.25 374.16-25.18 374.16-33.13 378.19-33.13 378.19 0ZM395.03 0.55L395.03 0.55Q389.46 0.55 386.63-2.18 383.81-4.9 383.81-9.98L383.81-9.98 383.81-14.33Q383.81-19.48 386.43-22.26 389.06-25.05 394.11-25.05L394.11-25.05Q397.51-25.05 399.78-23.79 402.06-22.53 403.21-20.2 404.36-17.88 404.36-14.65L404.36-14.65 404.36-13.75Q404.36-12.95 404.3-12.15 404.23-11.35 404.13-10.58L404.13-10.58 400.41-10.58Q400.46-11.78 400.47-12.85 400.48-13.93 400.48-14.83L400.48-14.83Q400.48-17.05 399.77-18.59 399.06-20.13 397.65-20.94 396.23-21.75 394.11-21.75L394.11-21.75Q390.96-21.75 389.38-19.93 387.81-18.1 387.81-14.7L387.81-14.7 387.81-12.38 387.83-11.88 387.83-9.55Q387.83-8.03 388.28-6.8 388.73-5.58 389.7-4.69 390.66-3.8 392.15-3.34 393.63-2.88 395.68-2.88L395.68-2.88Q398.06-2.88 400.11-3.5 402.16-4.13 403.96-5.2L403.96-5.2 403.58-1.7Q401.96-0.68 399.81-0.06 397.66 0.55 395.03 0.55ZM403.28-10.58L385.93-10.58 385.93-13.63 403.28-13.63 403.28-10.58ZM444.28 0L440.23 0 440.23-15.28Q440.23-17.2 439.74-18.61 439.26-20.03 438.14-20.8 437.03-21.58 435.16-21.58L435.16-21.58Q433.38-21.58 432.08-20.85 430.78-20.13 429.98-18.91 429.18-17.7 428.86-16.15L428.86-16.15 428.23-19.03 428.73-19.03Q429.13-20.6 430.08-21.95 431.03-23.3 432.66-24.13 434.28-24.95 436.68-24.95L436.68-24.95Q439.41-24.95 441.07-23.88 442.73-22.8 443.51-20.74 444.28-18.68 444.28-15.73L444.28-15.73 444.28 0ZM413.81 0L409.76 0 409.76-24.4 413.81-24.4 413.63-18.55 413.81-18.3 413.81 0ZM429.03 0L425.01 0 425.01-15.28Q425.01-17.2 424.52-18.61 424.03-20.03 422.93-20.8 421.83-21.58 419.96-21.58L419.96-21.58Q418.16-21.58 416.86-20.85 415.56-20.13 414.76-18.89 413.96-17.65 413.63-16.07L413.63-16.07 412.88-18.95 413.78-18.95Q414.16-20.6 415.08-21.96 416.01-23.33 417.59-24.14 419.18-24.95 421.46-24.95L421.46-24.95Q424.83-24.95 426.59-23.2 428.36-21.45 428.81-18.1L428.81-18.1Q428.93-17.6 428.98-17.01 429.03-16.43 429.03-15.85L429.03-15.85 429.03 0ZM454.68 0L450.63 0 450.63-24.4 454.68-24.4 454.68 0ZM452.65-28.4L452.65-28.4Q451.4-28.4 450.79-29.06 450.18-29.73 450.18-30.88L450.18-30.88 450.18-31Q450.18-32.18 450.79-32.83 451.4-33.48 452.65-33.48L452.65-33.48Q453.9-33.48 454.53-32.83 455.15-32.18 455.15-31L455.15-31 455.15-30.88Q455.15-29.7 454.53-29.05 453.9-28.4 452.65-28.4ZM470.78 0.55L470.78 0.55Q465.53 0.55 462.96-2.29 460.4-5.13 460.4-10.33L460.4-10.33 460.4-14.13Q460.4-19.35 462.98-22.16 465.55-24.98 470.78-24.98L470.78-24.98Q472.33-24.98 473.6-24.69 474.88-24.4 475.89-23.94 476.9-23.48 477.6-22.98L477.6-22.98 477.95-19.45Q476.78-20.35 475.16-20.98 473.55-21.6 471.38-21.6L471.38-21.6Q467.88-21.6 466.16-19.66 464.45-17.73 464.45-14.03L464.45-14.03 464.45-10.43Q464.45-6.8 466.16-4.85 467.88-2.9 471.38-2.9L471.38-2.9Q473.63-2.9 475.26-3.53 476.9-4.15 478.18-5.05L478.18-5.05 477.8-1.48Q476.7-0.73 474.93-0.09 473.15 0.55 470.78 0.55ZM501.55 0L497.45 0 497.45-31.95 501.55-31.95 501.55 0ZM517.37 0L498.67 0 498.67-3.48 517.37-3.48 517.37 0ZM516.85-14.58L499.8-14.58 499.8-18.03 516.85-18.03 516.85-14.58ZM517.22-28.48L498.65-28.48 498.65-31.95 517.22-31.95 517.22-28.48ZM525.44 0L521.02 0 529.02-13.28 529.02-12.13 521.17-24.4 525.62-24.4 531.77-14.48 532.12-14.48 538.24-24.4 542.69-24.4 534.84-12.13 534.84-13.28 542.84 0 538.42 0 532.12-10.6 531.77-10.6 525.44 0ZM555.59 0.55L555.59 0.55Q550.34 0.55 547.78-2.29 545.21-5.13 545.21-10.33L545.21-10.33 545.21-14.13Q545.21-19.35 547.79-22.16 550.36-24.98 555.59-24.98L555.59-24.98Q557.14-24.98 558.41-24.69 559.69-24.4 560.7-23.94 561.71-23.48 562.41-22.98L562.41-22.98 562.76-19.45Q561.59-20.35 559.98-20.98 558.36-21.6 556.19-21.6L556.19-21.6Q552.69-21.6 550.98-19.66 549.26-17.73 549.26-14.03L549.26-14.03 549.26-10.43Q549.26-6.8 550.98-4.85 552.69-2.9 556.19-2.9L556.19-2.9Q558.44-2.9 560.08-3.53 561.71-4.15 562.99-5.05L562.99-5.05 562.61-1.48Q561.51-0.73 559.74-0.09 557.96 0.55 555.59 0.55ZM577.66 0.55L577.66 0.55Q572.09 0.55 569.26-2.18 566.44-4.9 566.44-9.98L566.44-9.98 566.44-14.33Q566.44-19.48 569.06-22.26 571.69-25.05 576.74-25.05L576.74-25.05Q580.14-25.05 582.41-23.79 584.69-22.53 585.84-20.2 586.99-17.88 586.99-14.65L586.99-14.65 586.99-13.75Q586.99-12.95 586.92-12.15 586.86-11.35 586.76-10.58L586.76-10.58 583.04-10.58Q583.09-11.78 583.1-12.85 583.11-13.93 583.11-14.83L583.11-14.83Q583.11-17.05 582.4-18.59 581.69-20.13 580.27-20.94 578.86-21.75 576.74-21.75L576.74-21.75Q573.59-21.75 572.01-19.93 570.44-18.1 570.44-14.7L570.44-14.7 570.44-12.38 570.46-11.88 570.46-9.55Q570.46-8.03 570.91-6.8 571.36-5.58 572.32-4.69 573.29-3.8 574.77-3.34 576.26-2.88 578.31-2.88L578.31-2.88Q580.69-2.88 582.74-3.5 584.79-4.13 586.59-5.2L586.59-5.2 586.21-1.7Q584.59-0.68 582.44-0.06 580.29 0.55 577.66 0.55ZM585.91-10.58L568.56-10.58 568.56-13.63 585.91-13.63 585.91-10.58ZM596.53 0L592.51 0 592.51-33.13 596.53-33.13 596.53 0ZM607.83 0L603.81 0 603.81-33.13 607.83-33.13 607.83 0ZM624.8 0.55L624.8 0.55Q619.23 0.55 616.4-2.18 613.58-4.9 613.58-9.98L613.58-9.98 613.58-14.33Q613.58-19.48 616.2-22.26 618.83-25.05 623.88-25.05L623.88-25.05Q627.28-25.05 629.55-23.79 631.83-22.53 632.98-20.2 634.13-17.88 634.13-14.65L634.13-14.65 634.13-13.75Q634.13-12.95 634.07-12.15 634-11.35 633.9-10.58L633.9-10.58 630.18-10.58Q630.23-11.78 630.24-12.85 630.25-13.93 630.25-14.83L630.25-14.83Q630.25-17.05 629.54-18.59 628.83-20.13 627.42-20.94 626-21.75 623.88-21.75L623.88-21.75Q620.73-21.75 619.15-19.93 617.58-18.1 617.58-14.7L617.58-14.7 617.58-12.38 617.6-11.88 617.6-9.55Q617.6-8.03 618.05-6.8 618.5-5.58 619.47-4.69 620.43-3.8 621.92-3.34 623.4-2.88 625.45-2.88L625.45-2.88Q627.83-2.88 629.88-3.5 631.93-4.13 633.73-5.2L633.73-5.2 633.35-1.7Q631.73-0.68 629.58-0.06 627.43 0.55 624.8 0.55ZM633.05-10.58L615.7-10.58 615.7-13.63 633.05-13.63 633.05-10.58ZM659.9 0L655.85 0 655.85-15.18Q655.85-17.15 655.31-18.57 654.78-20 653.56-20.79 652.35-21.58 650.25-21.58L650.25-21.58Q648.33-21.58 646.91-20.85 645.5-20.13 644.63-18.89 643.75-17.65 643.4-16.07L643.4-16.07 642.68-18.95 643.55-18.95Q643.95-20.6 644.95-21.96 645.95-23.33 647.64-24.14 649.33-24.95 651.78-24.95L651.78-24.95Q654.68-24.95 656.46-23.85 658.25-22.75 659.08-20.69 659.9-18.63 659.9-15.63L659.9-15.63 659.9 0ZM643.58 0L639.53 0 639.53-24.4 643.58-24.4 643.4-18.55 643.58-18.32 643.58 0ZM675.57 0.55L675.57 0.55Q670.32 0.55 667.76-2.29 665.2-5.13 665.2-10.33L665.2-10.33 665.2-14.13Q665.2-19.35 667.77-22.16 670.35-24.98 675.57-24.98L675.57-24.98Q677.12-24.98 678.4-24.69 679.67-24.4 680.69-23.94 681.7-23.48 682.4-22.98L682.4-22.98 682.75-19.45Q681.57-20.35 679.96-20.98 678.35-21.6 676.17-21.6L676.17-21.6Q672.67-21.6 670.96-19.66 669.25-17.73 669.25-14.03L669.25-14.03 669.25-10.43Q669.25-6.8 670.96-4.85 672.67-2.9 676.17-2.9L676.17-2.9Q678.42-2.9 680.06-3.53 681.7-4.15 682.97-5.05L682.97-5.05 682.6-1.48Q681.5-0.73 679.72-0.09 677.95 0.55 675.57 0.55ZM697.65 0.55L697.65 0.55Q692.07 0.55 689.25-2.18 686.42-4.9 686.42-9.98L686.42-9.98 686.42-14.33Q686.42-19.48 689.05-22.26 691.67-25.05 696.72-25.05L696.72-25.05Q700.12-25.05 702.4-23.79 704.67-22.53 705.82-20.2 706.97-17.88 706.97-14.65L706.97-14.65 706.97-13.75Q706.97-12.95 706.91-12.15 706.85-11.35 706.75-10.58L706.75-10.58 703.02-10.58Q703.07-11.78 703.08-12.85 703.1-13.93 703.1-14.83L703.1-14.83Q703.1-17.05 702.38-18.59 701.67-20.13 700.26-20.94 698.85-21.75 696.72-21.75L696.72-21.75Q693.57-21.75 692-19.93 690.42-18.1 690.42-14.7L690.42-14.7 690.42-12.38 690.45-11.88 690.45-9.55Q690.45-8.03 690.9-6.8 691.35-5.58 692.31-4.69 693.27-3.8 694.76-3.34 696.25-2.88 698.3-2.88L698.3-2.88Q700.67-2.88 702.72-3.5 704.77-4.13 706.57-5.2L706.57-5.2 706.2-1.7Q704.57-0.68 702.42-0.06 700.27 0.55 697.65 0.55ZM705.9-10.58L688.55-10.58 688.55-13.63 705.9-13.63 705.9-10.58ZM713.77 0.48L713.77 0.48Q712.47 0.48 711.86-0.24 711.24-0.95 711.24-2.25L711.24-2.25 711.24-2.5Q711.24-3.78 711.86-4.48 712.47-5.18 713.77-5.18L713.77-5.18Q715.04-5.18 715.67-4.48 716.29-3.78 716.29-2.5L716.29-2.5 716.29-2.25Q716.29-0.95 715.67-0.24 715.04 0.48 713.77 0.48Z" opacity="1" transform="matrix(1,0,0,1,0,0)" fill="#636365" class="slogan-text-1" data-fill-palette-color="secondary" id="text-1"></path></svg></g></svg></g></svg></g></svg></g><g transform="matrix(1,0,0,1,450.61156649706885,0)"><svg viewBox="0 0 181.07129659120702 181.07129659120702" height="181.07129659120702" width="181.07129659120702"><g><svg></svg></g><g id="icon-0"><svg viewBox="0 0 181.07129659120702 181.07129659120702" height="181.07129659120702" width="181.07129659120702"><g></g><g transform="matrix(1,0,0,1,48.02442713055326,40.957783339330305)"><svg viewBox="0 0 85.02244233010049 99.1557299125464" height="99.1557299125464" width="85.02244233010049"><g><svg xmlns="http://www.w3.org/2000/svg" xmlns:xlink="http://www.w3.org/1999/xlink" version="1.1" x="0" y="0" viewBox="11.458035230197366 5 77.08598960662668 89.9" enable-background="new 0 0 100 100" xml:space="preserve" height="99.1557299125464" width="85.02244233010049" class="icon-dxe-0" data-fill-palette-color="accent" id="dxe-0"></svg></g></svg></g></svg></g></svg></g></svg></g><defs></defs><mask id="ee212ce6-d472-4cb3-915c-b62287b6eb5a"><g id="SvgjsG4404"><svg viewBox="0 0 395.52 113.37543475157706" height="113.37543475157706" width="395.52"><g><svg viewBox="0 0 631.6828630882758 181.07129659120702" height="113.37543475157706" width="395.52"><g transform="matrix(1,0,0,1,0,12.887813182136355)"><svg viewBox="0 0 395.52 155.2956702269343" height="155.2956702269343" width="395.52"><g id="SvgjsG4403"><svg viewBox="0 0 395.52 155.2956702269343" height="155.2956702269343" width="395.52" id="SvgjsSvg4402"><g><svg viewBox="0 0 395.52 116.68184503521927" height="116.68184503521927" width="395.52"><g transform="matrix(1,0,0,1,0,0)"><svg width="395.52" viewBox="0.68 -37.94 128.92082180132797 38.04" height="116.68184503521927" data-palette-color="url(#738073e4-d289-4154-8b17-2f9815aaa89e)"><g class="wordmark-text-0" data-fill-palette-color="primary" id="SvgjsG4401"><path d="M0.68-26.27L0.68-26.27Q1.46-27.39 2.76-28.2 4.05-29 5.64-29.54 7.23-30.08 9.06-30.37 10.89-30.66 12.65-30.81 14.4-30.96 16.06-31.01 17.72-31.05 18.99-31.05L18.99-31.05Q19.09-31.05 19.43-31.03 19.78-31.01 20.17-30.98 20.56-30.96 20.87-30.96 21.19-30.96 21.34-30.96L21.34-30.96Q21.53-29.88 21.12-29.47 20.7-29.05 20.04-28.98 19.38-28.91 18.65-29.03 17.92-29.15 17.58-29.05L17.58-29.05Q17.09-29 16.04-28.78 14.99-28.56 13.72-28.3 12.45-28.03 11.01-27.71 9.57-27.39 8.28-27.12 6.98-26.86 5.96-26.61 4.93-26.37 4.44-26.27L4.44-26.27Q3.66-25.98 3.56-25.54 3.47-25.1 3.47-24.51L3.47-24.51Q3.47-23.49 3.59-22.22 3.71-20.95 3.88-19.7 4.05-18.46 4.22-17.43 4.39-16.41 4.44-15.92L4.44-15.92Q4.64-15.87 5.18-15.87 5.71-15.87 5.91-15.87L5.91-15.87Q7.03-15.87 8.11-16.06 9.18-16.26 10.25-16.5 11.33-16.75 12.45-16.92 13.57-17.09 14.75-17.09L14.75-17.09 14.75-15.28Q14.26-15.28 13.38-15.21 12.5-15.14 11.45-14.94 10.4-14.75 9.33-14.53 8.25-14.31 7.37-14.06 6.49-13.82 5.93-13.57 5.37-13.33 5.37-13.09L5.37-13.09 5.37-2.93Q7.67-2.93 9.94-3.08 12.21-3.22 14.5-3.39 16.8-3.56 19.09-3.71 21.39-3.86 23.68-3.86L23.68-3.86Q23.68-3.27 23.29-2.91 22.9-2.54 22.39-2.32 21.88-2.1 21.29-2 20.7-1.9 20.41-1.86L20.41-1.86Q20.21-1.81 19.19-1.71 18.16-1.61 16.65-1.42 15.14-1.22 13.28-1.03 11.43-0.83 9.62-0.63 7.81-0.44 6.2-0.27 4.59-0.1 3.52 0L3.52 0Q3.37 0.05 3.08 0.05L3.08 0.05Q3.08-6.49 2.66-13.16 2.25-19.82 0.68-26.27ZM24.75-7.08L24.75-7.08Q24.75-8.4 25.19-9.99 25.63-11.57 26.46-12.92 27.29-14.26 28.46-15.14 29.64-16.02 31.2-16.02L31.2-16.02Q32.37-16.02 33.27-15.8 34.18-15.58 34.98-15.06 35.79-14.55 36.5-13.84 37.2-13.13 37.99-12.21L37.99-12.21 37.69-37.26Q39.01-37.74 39.33-37.65 39.65-37.55 39.65-36.82L39.65-36.82Q39.65-36.72 39.62-36.52 39.6-36.33 39.6-36.28L39.6-36.28Q39.55-35.35 39.52-33.64 39.5-31.93 39.52-29.69 39.55-27.44 39.6-24.83 39.65-22.22 39.69-19.56 39.74-16.89 39.82-14.28 39.89-11.67 39.91-9.42 39.94-7.18 39.91-5.44 39.89-3.71 39.84-2.83L39.84-2.83Q39.3-1.71 38.35-1.12 37.4-0.54 36.3-0.27 35.2 0 34.03 0.05 32.86 0.1 31.83 0.1L31.83 0.1Q28.56 0.1 26.66-1.83 24.75-3.76 24.75-7.08ZM26.71-8.4L26.71-8.4Q26.71-7.18 26.9-5.98 27.1-4.79 27.59-3.86 28.07-2.93 28.95-2.37 29.83-1.81 31.2-1.81L31.2-1.81Q32.03-1.81 33.2-1.81 34.37-1.81 35.45-2.08 36.52-2.34 37.25-2.93 37.99-3.52 37.99-4.59L37.99-4.59Q37.99-5.86 37.62-7.5 37.25-9.13 36.5-10.62 35.74-12.11 34.59-13.16 33.44-14.21 31.88-14.21L31.88-14.21Q30.86-14.21 29.93-13.67 29-13.13 28.29-12.3 27.59-11.47 27.15-10.45 26.71-9.42 26.71-8.4ZM41.84-18.95L41.84-18.95Q41.84-19.19 42.16-19.43 42.48-19.68 42.94-19.82 43.4-19.97 43.84-20.02 44.28-20.07 44.48-19.87L44.48-19.87Q44.77-13.82 45.62-10.23 46.48-6.64 47.58-4.98 48.68-3.32 49.95-3.3 51.22-3.27 52.44-4.37 53.66-5.47 54.71-7.37 55.76-9.28 56.42-11.47 57.08-13.67 57.22-15.87 57.37-18.07 56.83-19.78L56.83-19.78 59.76-20.12Q59.81-19.38 60.03-17.7 60.25-16.02 60.52-13.89 60.79-11.77 61.13-9.47 61.47-7.18 61.71-5.2 61.96-3.22 62.15-1.83 62.35-0.44 62.35-0.1L62.35-0.1 60.25-0.1 57.95-8.54Q57.27-6.84 56.29-5.27 55.32-3.71 54.17-2.54 53.02-1.37 51.75-0.71 50.48-0.05 49.24-0.17 47.99-0.29 46.82-1.32 45.65-2.34 44.65-4.57 43.65-6.79 42.91-10.3 42.18-13.82 41.84-18.95ZM64.2-26.86L64.2-26.86Q64.2-28.42 65.4-29.57 66.59-30.71 68.3-31.42 70.01-32.13 71.87-32.5 73.72-32.86 75.04-32.86L75.04-32.86Q76.36-32.86 77.7-32.42 79.05-31.98 80.07-31.18 81.1-30.37 81.66-29.13 82.22-27.88 82.02-26.27L82.02-26.27Q81.78-23.78 80.39-21.88 79-19.97 76.97-18.68 74.94-17.38 72.58-16.72 70.21-16.06 68.01-16.06L68.01-16.06Q68.01-14.26 68.16-12.48 68.3-10.69 68.47-8.89 68.64-7.08 68.79-5.3 68.94-3.52 68.94-1.71L68.94-1.71Q68.94-1.17 68.84-0.71 68.74-0.24 67.96 0L67.96 0 66.98-0.93Q66.98-0.98 66.84-2.29 66.69-3.61 66.42-5.71 66.15-7.81 65.84-10.47 65.52-13.13 65.23-15.82 64.93-18.51 64.67-21 64.4-23.49 64.2-25.29L64.2-25.29Q64.2-25.34 64.2-25.54 64.2-25.73 64.2-25.98 64.2-26.22 64.2-26.46 64.2-26.71 64.2-26.86ZM66.94-25.1L66.94-25.1Q66.94-24.07 66.96-23.19 66.98-22.31 67.11-21.48 67.23-20.65 67.42-19.78 67.62-18.9 67.96-17.77L67.96-17.77Q69.47-18.02 71.57-18.7 73.67-19.38 75.6-20.56 77.53-21.73 78.85-23.27 80.17-24.8 80.17-26.71L80.17-26.71Q80.17-27.73 79.68-28.54 79.19-29.35 78.43-29.88 77.68-30.42 76.75-30.71 75.82-31.01 74.94-31.01L74.94-31.01Q73.53-31.01 72.09-30.66 70.65-30.32 69.5-29.59 68.35-28.86 67.64-27.73 66.94-26.61 66.94-25.1ZM84.37-37.94L84.37-37.94Q85.05-37.84 85.56-37.57 86.07-37.3 86.37-36.62L86.37-36.62Q86.37-35.69 86.44-34.06 86.51-32.42 86.59-30.27 86.66-28.13 86.76-25.63 86.86-23.14 86.95-20.61 87.05-18.07 87.12-15.58 87.2-13.09 87.27-10.94 87.34-8.79 87.39-7.13 87.44-5.47 87.49-4.59L87.49-4.59Q87.49-4.49 87.47-4.25 87.44-4 87.42-3.66 87.39-3.32 87.37-3 87.34-2.69 87.34-2.54L87.34-2.54Q87.29-2.25 87.29-1.83 87.29-1.42 87.2-1.03 87.1-0.63 86.88-0.32 86.66 0 86.17 0.05L86.17 0.05 85.34-0.98Q85.29-1.03 85.22-2.81 85.15-4.59 85.02-7.45 84.9-10.3 84.8-13.89 84.71-17.48 84.58-21.14 84.46-24.8 84.37-28.17 84.27-31.54 84.22-33.98L84.22-33.98Q84.22-34.18 84.24-34.77 84.27-35.35 84.29-35.96 84.32-36.57 84.34-37.13 84.37-37.7 84.37-37.94ZM90.22-18.95L90.22-18.95Q90.22-19.19 90.54-19.43 90.86-19.68 91.32-19.82 91.78-19.97 92.22-20.02 92.66-20.07 92.86-19.87L92.86-19.87Q93.15-13.82 94.01-10.23 94.86-6.64 95.96-4.98 97.06-3.32 98.33-3.3 99.6-3.27 100.82-4.37 102.04-5.47 103.09-7.37 104.14-9.28 104.8-11.47 105.46-13.67 105.6-15.87 105.75-18.07 105.21-19.78L105.21-19.78 108.14-20.12Q108.19-19.38 108.41-17.7 108.63-16.02 108.9-13.89 109.17-11.77 109.51-9.47 109.85-7.18 110.09-5.2 110.34-3.22 110.53-1.83 110.73-0.44 110.73-0.1L110.73-0.1 108.63-0.1 106.34-8.54Q105.65-6.84 104.68-5.27 103.7-3.71 102.55-2.54 101.4-1.37 100.13-0.71 98.86-0.05 97.62-0.17 96.37-0.29 95.2-1.32 94.03-2.34 93.03-4.57 92.03-6.79 91.3-10.3 90.56-13.82 90.22-18.95ZM115.17-3.96L115.17-3.96Q116.05-3.96 116.81-3.61 117.56-3.27 118.3-2.86 119.03-2.44 119.78-2.12 120.54-1.81 121.42-1.81L121.42-1.81Q122.45-1.81 123.54-2.17 124.64-2.54 125.57-3.2 126.5-3.86 127.08-4.81 127.67-5.76 127.67-6.88L127.67-6.88Q127.72-7.23 127.69-7.71 127.67-8.2 127.38-8.72 127.08-9.23 126.4-9.69 125.72-10.16 124.42-10.4 123.13-10.64 121.18-10.67 119.22-10.69 116.34-10.3L116.34-10.3Q115.61-10.3 114.93-10.72 114.24-11.13 113.71-11.74 113.17-12.35 112.83-13.06 112.49-13.77 112.49-14.4L112.49-14.4Q112.49-16.31 113.29-17.5 114.1-18.7 115.37-19.41 116.64-20.12 118.2-20.41 119.76-20.7 121.37-20.7L121.37-20.7Q122.1-20.7 123.06-20.63 124.01-20.56 124.81-20.24 125.62-19.92 126.18-19.24 126.74-18.55 126.74-17.33L126.74-17.33Q126.65-16.5 126.47-16.33 126.3-16.16 125.99-16.43 125.67-16.7 125.23-17.19 124.79-17.68 124.18-18.14 123.57-18.6 122.71-18.85 121.86-19.09 120.79-18.85L120.79-18.85Q119.66-18.85 118.54-18.63 117.42-18.41 116.51-17.87 115.61-17.33 115.05-16.41 114.49-15.48 114.49-14.06L114.49-14.06Q114.49-13.33 115.15-13.06 115.81-12.79 116.9-12.79 118-12.79 119.39-12.87 120.79-12.94 122.25-12.94 123.72-12.94 125.08-12.72 126.45-12.5 127.5-11.84 128.55-11.18 129.14-9.96 129.72-8.74 129.57-6.79L129.57-6.79Q129.57-5.37 128.77-4.1 127.96-2.83 126.72-1.88 125.47-0.93 123.96-0.39 122.45 0.15 121.03 0L121.03 0Q120.44-0.05 119.44-0.32 118.44-0.59 117.49-1.07 116.54-1.56 115.85-2.27 115.17-2.98 115.17-3.96Z" fill="white"></path></g></svg></g></svg></g><g transform="matrix(1,0,0,1,163.31020799999996,144.2276282837537)"><svg viewBox="0 0 232.20979200000002 11.068041943180626" height="11.068041943180626" width="232.20979200000002"><g transform="matrix(1,0,0,1,0,0)"><svg width="232.20979200000002" viewBox="0.95 -33.48 715.3399999999999 34.11" height="11.068041943180626" data-palette-color="#636365"><path d="M15.5-9.6L11.93-9.6 0.95-31.95 5.33-31.95 11.2-19.73 13.55-14.43 13.88-14.43 16.23-19.73 22.08-31.95 26.48-31.95 15.5-9.6ZM15.75 0L11.68 0 11.68-13.48 15.75-13.48 15.75 0ZM36.5 0.63L36.5 0.63Q31.25 0.63 28.54-2.21 25.82-5.05 25.82-10.38L25.82-10.38 25.82-14.1Q25.82-19.4 28.55-22.23 31.27-25.05 36.5-25.05L36.5-25.05Q41.75-25.05 44.46-22.23 47.17-19.4 47.17-14.1L47.17-14.1 47.17-10.38Q47.17-5.05 44.46-2.21 41.75 0.63 36.5 0.63ZM36.5-2.68L36.5-2.68Q39.75-2.68 41.44-4.6 43.12-6.53 43.12-10.15L43.12-10.15 43.12-14.33Q43.12-17.93 41.44-19.84 39.75-21.75 36.5-21.75L36.5-21.75Q33.27-21.75 31.57-19.84 29.87-17.93 29.87-14.33L29.87-14.33 29.87-10.15Q29.87-6.53 31.57-4.6 33.27-2.68 36.5-2.68ZM52.5-24.4L56.52-24.4 56.52-9.22Q56.52-7.3 57.06-5.86 57.6-4.42 58.82-3.64 60.05-2.85 62.12-2.85L62.12-2.85Q64.07-2.85 65.47-3.56 66.87-4.28 67.76-5.53 68.65-6.78 68.97-8.35L68.97-8.35 69.7-5.48 68.82-5.48Q68.45-3.83 67.45-2.46 66.45-1.1 64.76-0.29 63.07 0.53 60.6 0.53L60.6 0.53Q57.72 0.53 55.93-0.56 54.15-1.65 53.32-3.74 52.5-5.83 52.5-8.78L52.5-8.78 52.5-24.4ZM68.8-24.4L72.84-24.4 72.84 0 68.8 0 68.97-5.85 68.8-6.1 68.8-24.4ZM83.29-14.93L83.29-14.93 82.37-18.05 83.37-18.1Q84.17-21.2 86.12-22.99 88.07-24.78 91.29-24.78L91.29-24.78Q92.09-24.78 92.73-24.65 93.37-24.53 93.87-24.35L93.87-24.35 94.12-20.43Q93.49-20.63 92.73-20.75 91.97-20.88 91.04-20.88L91.04-20.88Q88.29-20.88 86.26-19.35 84.22-17.82 83.29-14.93ZM83.49 0L79.44 0 79.44-24.4 83.39-24.4 83.19-17.2 83.49-16.9 83.49 0ZM124.34-10.63L115.16-10.63 115.16-14.08 124.24-14.08Q127.51-14.08 128.99-15.71 130.46-17.35 130.46-20.23L130.46-20.23 130.46-22.4Q130.46-25.33 129-26.93 127.54-28.53 124.29-28.53L124.29-28.53 115.14-28.53 115.14-31.95 124.36-31.95Q129.71-31.95 132.15-29.44 134.59-26.93 134.59-22.53L134.59-22.53 134.59-20.13Q134.59-15.68 132.13-13.15 129.66-10.63 124.34-10.63L124.34-10.63ZM116.56 0L112.46 0 112.46-31.95 116.54-31.95 116.54-13.05 116.56-11.2 116.56 0ZM157.86 0L153.84 0 154.01-5.93 153.86-6.55 153.86-14.33 153.89-15.75Q153.89-18.73 152.37-20.15 150.86-21.58 147.59-21.58L147.59-21.58Q144.96-21.58 142.77-20.83 140.59-20.08 138.89-19.07L138.89-19.07 139.26-22.53Q140.21-23.1 141.52-23.66 142.84-24.23 144.52-24.6 146.21-24.98 148.24-24.98L148.24-24.98Q150.86-24.98 152.7-24.34 154.54-23.7 155.67-22.5 156.81-21.3 157.34-19.6 157.86-17.9 157.86-15.8L157.86-15.8 157.86 0ZM145.44 0.53L145.44 0.53Q141.81 0.53 139.87-1.24 137.94-3 137.94-6.28L137.94-6.28 137.94-7Q137.94-10.38 140.02-12.04 142.11-13.7 146.66-14.35L146.66-14.35 154.39-15.45 154.61-12.5 147.16-11.43Q144.36-11.03 143.16-10.06 141.96-9.1 141.96-7.23L141.96-7.23 141.96-6.83Q141.96-4.9 143.15-3.88 144.34-2.85 146.71-2.85L146.71-2.85Q148.81-2.85 150.31-3.58 151.81-4.3 152.74-5.53 153.66-6.75 153.99-8.25L153.99-8.25 154.61-5.5 153.84-5.5Q153.49-3.9 152.52-2.53 151.56-1.15 149.84-0.31 148.11 0.53 145.44 0.53ZM172.71 0.5L172.71 0.5Q169.88 0.5 168.16-0.35 166.43-1.2 165.66-2.93 164.88-4.65 164.88-7.23L164.88-7.23 164.88-22.63 168.88-22.63 168.88-7.7Q168.88-5.3 169.98-4.16 171.08-3.03 173.68-3.03L173.68-3.03Q175.16-3.03 176.52-3.35 177.88-3.68 179.08-4.28L179.08-4.28 178.71-0.8Q177.53-0.2 175.96 0.15 174.38 0.5 172.71 0.5ZM178.46-20.8L160.88-20.8 160.88-24.05 178.83-24.05 178.46-20.8ZM168.78-23.65L164.91-23.65 164.88-30.5 168.96-31.03 168.78-23.65ZM203.98 0L199.93 0 199.93-15.18Q199.93-17.15 199.39-18.57 198.86-20 197.64-20.79 196.43-21.58 194.33-21.58L194.33-21.58Q192.41-21.58 191.01-20.85 189.61-20.13 188.74-18.89 187.88-17.65 187.53-16.07L187.53-16.07 186.63-18.95 187.68-18.95Q188.06-20.6 189.06-21.96 190.06-23.33 191.74-24.14 193.43-24.95 195.86-24.95L195.86-24.95Q198.76-24.95 200.54-23.85 202.33-22.75 203.16-20.69 203.98-18.63 203.98-15.63L203.98-15.63 203.98 0ZM187.66 0L183.61 0 183.61-33.13 187.63-33.13 187.63-25.18 187.51-18.18 187.66-17.85 187.66 0ZM233.03 0.5L233.03 0.5Q230.2 0.5 228.48-0.35 226.75-1.2 225.98-2.93 225.2-4.65 225.2-7.23L225.2-7.23 225.2-22.63 229.2-22.63 229.2-7.7Q229.2-5.3 230.3-4.16 231.4-3.03 234-3.03L234-3.03Q235.48-3.03 236.84-3.35 238.2-3.68 239.4-4.28L239.4-4.28 239.03-0.8Q237.85-0.2 236.28 0.15 234.7 0.5 233.03 0.5ZM238.78-20.8L221.2-20.8 221.2-24.05 239.15-24.05 238.78-20.8ZM229.1-23.65L225.23-23.65 225.2-30.5 229.28-31.03 229.1-23.65ZM252.97 0.63L252.97 0.63Q247.72 0.63 245.01-2.21 242.3-5.05 242.3-10.38L242.3-10.38 242.3-14.1Q242.3-19.4 245.02-22.23 247.75-25.05 252.97-25.05L252.97-25.05Q258.22-25.05 260.94-22.23 263.65-19.4 263.65-14.1L263.65-14.1 263.65-10.38Q263.65-5.05 260.94-2.21 258.22 0.63 252.97 0.63ZM252.97-2.68L252.97-2.68Q256.22-2.68 257.91-4.6 259.6-6.53 259.6-10.15L259.6-10.15 259.6-14.33Q259.6-17.93 257.91-19.84 256.22-21.75 252.97-21.75L252.97-21.75Q249.75-21.75 248.05-19.84 246.35-17.93 246.35-14.33L246.35-14.33 246.35-10.15Q246.35-6.53 248.05-4.6 249.75-2.68 252.97-2.68ZM285.29 0L281.09 0 291.09-31.95 297.64-31.95 307.67 0 303.47 0 294.69-29.15 294.07-29.15 285.29 0ZM301.64-9.43L287.09-9.43 287.09-12.88 301.64-12.88 301.64-9.43ZM320.94 0.55L320.94 0.55Q315.69 0.55 313.13-2.29 310.57-5.13 310.57-10.33L310.57-10.33 310.57-14.13Q310.57-19.35 313.14-22.16 315.72-24.98 320.94-24.98L320.94-24.98Q322.49-24.98 323.77-24.69 325.04-24.4 326.05-23.94 327.07-23.48 327.77-22.98L327.77-22.98 328.12-19.45Q326.94-20.35 325.33-20.98 323.72-21.6 321.54-21.6L321.54-21.6Q318.04-21.6 316.33-19.66 314.62-17.73 314.62-14.03L314.62-14.03 314.62-10.43Q314.62-6.8 316.33-4.85 318.04-2.9 321.54-2.9L321.54-2.9Q323.79-2.9 325.43-3.53 327.07-4.15 328.34-5.05L328.34-5.05 327.97-1.48Q326.87-0.73 325.09-0.09 323.32 0.55 320.94 0.55ZM351.74 0L347.71 0 347.89-5.93 347.74-6.55 347.74-14.33 347.76-15.75Q347.76-18.73 346.25-20.15 344.74-21.58 341.46-21.58L341.46-21.58Q338.84-21.58 336.65-20.83 334.46-20.08 332.76-19.07L332.76-19.07 333.14-22.53Q334.09-23.1 335.4-23.66 336.71-24.23 338.4-24.6 340.09-24.98 342.11-24.98L342.11-24.98Q344.74-24.98 346.58-24.34 348.41-23.7 349.55-22.5 350.69-21.3 351.21-19.6 351.74-17.9 351.74-15.8L351.74-15.8 351.74 0ZM339.31 0.53L339.31 0.53Q335.69 0.53 333.75-1.24 331.81-3 331.81-6.28L331.81-6.28 331.81-7Q331.81-10.38 333.9-12.04 335.99-13.7 340.54-14.35L340.54-14.35 348.26-15.45 348.49-12.5 341.04-11.43Q338.24-11.03 337.04-10.06 335.84-9.1 335.84-7.23L335.84-7.23 335.84-6.83Q335.84-4.9 337.03-3.88 338.21-2.85 340.59-2.85L340.59-2.85Q342.69-2.85 344.19-3.58 345.69-4.3 346.61-5.53 347.54-6.75 347.86-8.25L347.86-8.25 348.49-5.5 347.71-5.5Q347.36-3.9 346.4-2.53 345.44-1.15 343.71-0.31 341.99 0.53 339.31 0.53ZM365.99 0.53L365.99 0.53Q361.59 0.53 359.29-2.2 356.99-4.93 356.99-10.15L356.99-10.15 356.99-14.18Q356.99-19.43 359.31-22.19 361.64-24.95 366.16-24.95L366.16-24.95Q368.41-24.95 370.06-24.19 371.71-23.43 372.74-22.05 373.76-20.68 374.11-18.8L374.11-18.8 375.44-18.8 374.24-15.08Q374.16-17.23 373.27-18.69 372.39-20.15 370.87-20.9 369.36-21.65 367.41-21.65L367.41-21.65Q364.31-21.65 362.67-19.85 361.04-18.05 361.04-14.55L361.04-14.55 361.04-9.9Q361.04-6.45 362.67-4.65 364.31-2.85 367.41-2.85L367.41-2.85Q369.26-2.85 370.69-3.56 372.11-4.28 373.05-5.54 373.99-6.8 374.34-8.4L374.34-8.4 375.34-5.5 374.14-5.5Q373.79-3.85 372.8-2.48 371.81-1.1 370.15-0.29 368.49 0.53 365.99 0.53ZM378.19 0L374.14 0 374.31-5.9 374.24-7.2 374.24-17.4 374.26-18.25 374.16-25.18 374.16-33.13 378.19-33.13 378.19 0ZM395.03 0.55L395.03 0.55Q389.46 0.55 386.63-2.18 383.81-4.9 383.81-9.98L383.81-9.98 383.81-14.33Q383.81-19.48 386.43-22.26 389.06-25.05 394.11-25.05L394.11-25.05Q397.51-25.05 399.78-23.79 402.06-22.53 403.21-20.2 404.36-17.88 404.36-14.65L404.36-14.65 404.36-13.75Q404.36-12.95 404.3-12.15 404.23-11.35 404.13-10.58L404.13-10.58 400.41-10.58Q400.46-11.78 400.47-12.85 400.48-13.93 400.48-14.83L400.48-14.83Q400.48-17.05 399.77-18.59 399.06-20.13 397.65-20.94 396.23-21.75 394.11-21.75L394.11-21.75Q390.96-21.75 389.38-19.93 387.81-18.1 387.81-14.7L387.81-14.7 387.81-12.38 387.83-11.88 387.83-9.55Q387.83-8.03 388.28-6.8 388.73-5.58 389.7-4.69 390.66-3.8 392.15-3.34 393.63-2.88 395.68-2.88L395.68-2.88Q398.06-2.88 400.11-3.5 402.16-4.13 403.96-5.2L403.96-5.2 403.58-1.7Q401.96-0.68 399.81-0.06 397.66 0.55 395.03 0.55ZM403.28-10.58L385.93-10.58 385.93-13.63 403.28-13.63 403.28-10.58ZM444.28 0L440.23 0 440.23-15.28Q440.23-17.2 439.74-18.61 439.26-20.03 438.14-20.8 437.03-21.58 435.16-21.58L435.16-21.58Q433.38-21.58 432.08-20.85 430.78-20.13 429.98-18.91 429.18-17.7 428.86-16.15L428.86-16.15 428.23-19.03 428.73-19.03Q429.13-20.6 430.08-21.95 431.03-23.3 432.66-24.13 434.28-24.95 436.68-24.95L436.68-24.95Q439.41-24.95 441.07-23.88 442.73-22.8 443.51-20.74 444.28-18.68 444.28-15.73L444.28-15.73 444.28 0ZM413.81 0L409.76 0 409.76-24.4 413.81-24.4 413.63-18.55 413.81-18.3 413.81 0ZM429.03 0L425.01 0 425.01-15.28Q425.01-17.2 424.52-18.61 424.03-20.03 422.93-20.8 421.83-21.58 419.96-21.58L419.96-21.58Q418.16-21.58 416.86-20.85 415.56-20.13 414.76-18.89 413.96-17.65 413.63-16.07L413.63-16.07 412.88-18.95 413.78-18.95Q414.16-20.6 415.08-21.96 416.01-23.33 417.59-24.14 419.18-24.95 421.46-24.95L421.46-24.95Q424.83-24.95 426.59-23.2 428.36-21.45 428.81-18.1L428.81-18.1Q428.93-17.6 428.98-17.01 429.03-16.43 429.03-15.85L429.03-15.85 429.03 0ZM454.68 0L450.63 0 450.63-24.4 454.68-24.4 454.68 0ZM452.65-28.4L452.65-28.4Q451.4-28.4 450.79-29.06 450.18-29.73 450.18-30.88L450.18-30.88 450.18-31Q450.18-32.18 450.79-32.83 451.4-33.48 452.65-33.48L452.65-33.48Q453.9-33.48 454.53-32.83 455.15-32.18 455.15-31L455.15-31 455.15-30.88Q455.15-29.7 454.53-29.05 453.9-28.4 452.65-28.4ZM470.78 0.55L470.78 0.55Q465.53 0.55 462.96-2.29 460.4-5.13 460.4-10.33L460.4-10.33 460.4-14.13Q460.4-19.35 462.98-22.16 465.55-24.98 470.78-24.98L470.78-24.98Q472.33-24.98 473.6-24.69 474.88-24.4 475.89-23.94 476.9-23.48 477.6-22.98L477.6-22.98 477.95-19.45Q476.78-20.35 475.16-20.98 473.55-21.6 471.38-21.6L471.38-21.6Q467.88-21.6 466.16-19.66 464.45-17.73 464.45-14.03L464.45-14.03 464.45-10.43Q464.45-6.8 466.16-4.85 467.88-2.9 471.38-2.9L471.38-2.9Q473.63-2.9 475.26-3.53 476.9-4.15 478.18-5.05L478.18-5.05 477.8-1.48Q476.7-0.73 474.93-0.09 473.15 0.55 470.78 0.55ZM501.55 0L497.45 0 497.45-31.95 501.55-31.95 501.55 0ZM517.37 0L498.67 0 498.67-3.48 517.37-3.48 517.37 0ZM516.85-14.58L499.8-14.58 499.8-18.03 516.85-18.03 516.85-14.58ZM517.22-28.48L498.65-28.48 498.65-31.95 517.22-31.95 517.22-28.48ZM525.44 0L521.02 0 529.02-13.28 529.02-12.13 521.17-24.4 525.62-24.4 531.77-14.48 532.12-14.48 538.24-24.4 542.69-24.4 534.84-12.13 534.84-13.28 542.84 0 538.42 0 532.12-10.6 531.77-10.6 525.44 0ZM555.59 0.55L555.59 0.55Q550.34 0.55 547.78-2.29 545.21-5.13 545.21-10.33L545.21-10.33 545.21-14.13Q545.21-19.35 547.79-22.16 550.36-24.98 555.59-24.98L555.59-24.98Q557.14-24.98 558.41-24.69 559.69-24.4 560.7-23.94 561.71-23.48 562.41-22.98L562.41-22.98 562.76-19.45Q561.59-20.35 559.98-20.98 558.36-21.6 556.19-21.6L556.19-21.6Q552.69-21.6 550.98-19.66 549.26-17.73 549.26-14.03L549.26-14.03 549.26-10.43Q549.26-6.8 550.98-4.85 552.69-2.9 556.19-2.9L556.19-2.9Q558.44-2.9 560.08-3.53 561.71-4.15 562.99-5.05L562.99-5.05 562.61-1.48Q561.51-0.73 559.74-0.09 557.96 0.55 555.59 0.55ZM577.66 0.55L577.66 0.55Q572.09 0.55 569.26-2.18 566.44-4.9 566.44-9.98L566.44-9.98 566.44-14.33Q566.44-19.48 569.06-22.26 571.69-25.05 576.74-25.05L576.74-25.05Q580.14-25.05 582.41-23.79 584.69-22.53 585.84-20.2 586.99-17.88 586.99-14.65L586.99-14.65 586.99-13.75Q586.99-12.95 586.92-12.15 586.86-11.35 586.76-10.58L586.76-10.58 583.04-10.58Q583.09-11.78 583.1-12.85 583.11-13.93 583.11-14.83L583.11-14.83Q583.11-17.05 582.4-18.59 581.69-20.13 580.27-20.94 578.86-21.75 576.74-21.75L576.74-21.75Q573.59-21.75 572.01-19.93 570.44-18.1 570.44-14.7L570.44-14.7 570.44-12.38 570.46-11.88 570.46-9.55Q570.46-8.03 570.91-6.8 571.36-5.58 572.32-4.69 573.29-3.8 574.77-3.34 576.26-2.88 578.31-2.88L578.31-2.88Q580.69-2.88 582.74-3.5 584.79-4.13 586.59-5.2L586.59-5.2 586.21-1.7Q584.59-0.68 582.44-0.06 580.29 0.55 577.66 0.55ZM585.91-10.58L568.56-10.58 568.56-13.63 585.91-13.63 585.91-10.58ZM596.53 0L592.51 0 592.51-33.13 596.53-33.13 596.53 0ZM607.83 0L603.81 0 603.81-33.13 607.83-33.13 607.83 0ZM624.8 0.55L624.8 0.55Q619.23 0.55 616.4-2.18 613.58-4.9 613.58-9.98L613.58-9.98 613.58-14.33Q613.58-19.48 616.2-22.26 618.83-25.05 623.88-25.05L623.88-25.05Q627.28-25.05 629.55-23.79 631.83-22.53 632.98-20.2 634.13-17.88 634.13-14.65L634.13-14.65 634.13-13.75Q634.13-12.95 634.07-12.15 634-11.35 633.9-10.58L633.9-10.58 630.18-10.58Q630.23-11.78 630.24-12.85 630.25-13.93 630.25-14.83L630.25-14.83Q630.25-17.05 629.54-18.59 628.83-20.13 627.42-20.94 626-21.75 623.88-21.75L623.88-21.75Q620.73-21.75 619.15-19.93 617.58-18.1 617.58-14.7L617.58-14.7 617.58-12.38 617.6-11.88 617.6-9.55Q617.6-8.03 618.05-6.8 618.5-5.58 619.47-4.69 620.43-3.8 621.92-3.34 623.4-2.88 625.45-2.88L625.45-2.88Q627.83-2.88 629.88-3.5 631.93-4.13 633.73-5.2L633.73-5.2 633.35-1.7Q631.73-0.68 629.58-0.06 627.43 0.55 624.8 0.55ZM633.05-10.58L615.7-10.58 615.7-13.63 633.05-13.63 633.05-10.58ZM659.9 0L655.85 0 655.85-15.18Q655.85-17.15 655.31-18.57 654.78-20 653.56-20.79 652.35-21.58 650.25-21.58L650.25-21.58Q648.33-21.58 646.91-20.85 645.5-20.13 644.63-18.89 643.75-17.65 643.4-16.07L643.4-16.07 642.68-18.95 643.55-18.95Q643.95-20.6 644.95-21.96 645.95-23.33 647.64-24.14 649.33-24.95 651.78-24.95L651.78-24.95Q654.68-24.95 656.46-23.85 658.25-22.75 659.08-20.69 659.9-18.63 659.9-15.63L659.9-15.63 659.9 0ZM643.58 0L639.53 0 639.53-24.4 643.58-24.4 643.4-18.55 643.58-18.32 643.58 0ZM675.57 0.55L675.57 0.55Q670.32 0.55 667.76-2.29 665.2-5.13 665.2-10.33L665.2-10.33 665.2-14.13Q665.2-19.35 667.77-22.16 670.35-24.98 675.57-24.98L675.57-24.98Q677.12-24.98 678.4-24.69 679.67-24.4 680.69-23.94 681.7-23.48 682.4-22.98L682.4-22.98 682.75-19.45Q681.57-20.35 679.96-20.98 678.35-21.6 676.17-21.6L676.17-21.6Q672.67-21.6 670.96-19.66 669.25-17.73 669.25-14.03L669.25-14.03 669.25-10.43Q669.25-6.8 670.96-4.85 672.67-2.9 676.17-2.9L676.17-2.9Q678.42-2.9 680.06-3.53 681.7-4.15 682.97-5.05L682.97-5.05 682.6-1.48Q681.5-0.73 679.72-0.09 677.95 0.55 675.57 0.55ZM697.65 0.55L697.65 0.55Q692.07 0.55 689.25-2.18 686.42-4.9 686.42-9.98L686.42-9.98 686.42-14.33Q686.42-19.48 689.05-22.26 691.67-25.05 696.72-25.05L696.72-25.05Q700.12-25.05 702.4-23.79 704.67-22.53 705.82-20.2 706.97-17.88 706.97-14.65L706.97-14.65 706.97-13.75Q706.97-12.95 706.91-12.15 706.85-11.35 706.75-10.58L706.75-10.58 703.02-10.58Q703.07-11.78 703.08-12.85 703.1-13.93 703.1-14.83L703.1-14.83Q703.1-17.05 702.38-18.59 701.67-20.13 700.26-20.94 698.85-21.75 696.72-21.75L696.72-21.75Q693.57-21.75 692-19.93 690.42-18.1 690.42-14.7L690.42-14.7 690.42-12.38 690.45-11.88 690.45-9.55Q690.45-8.03 690.9-6.8 691.35-5.58 692.31-4.69 693.27-3.8 694.76-3.34 696.25-2.88 698.3-2.88L698.3-2.88Q700.67-2.88 702.72-3.5 704.77-4.13 706.57-5.2L706.57-5.2 706.2-1.7Q704.57-0.68 702.42-0.06 700.27 0.55 697.65 0.55ZM705.9-10.58L688.55-10.58 688.55-13.63 705.9-13.63 705.9-10.58ZM713.77 0.48L713.77 0.48Q712.47 0.48 711.86-0.24 711.24-0.95 711.24-2.25L711.24-2.25 711.24-2.5Q711.24-3.78 711.86-4.48 712.47-5.18 713.77-5.18L713.77-5.18Q715.04-5.18 715.67-4.48 716.29-3.78 716.29-2.5L716.29-2.5 716.29-2.25Q716.29-0.95 715.67-0.24 715.04 0.48 713.77 0.48Z" opacity="1" transform="matrix(1,0,0,1,0,0)" fill="black" class="slogan-text-1" id="SvgjsPath4400"></path></svg></g></svg></g></svg></g></svg></g><g transform="matrix(1,0,0,1,450.61156649706885,0)"><svg viewBox="0 0 181.07129659120702 181.07129659120702" height="181.07129659120702" width="181.07129659120702"><g><svg></svg></g><g id="SvgjsG4399"><svg viewBox="0 0 181.07129659120702 181.07129659120702" height="181.07129659120702" width="181.07129659120702"><g><path d="M0 90.536c0-50.001 40.534-90.536 90.536-90.536 50.001 0 90.536 40.534 90.535 90.536 0 50.001-40.534 90.536-90.535 90.535-50.001 0-90.536-40.534-90.536-90.535zM90.536 170.549c44.19 0 80.013-35.823 80.013-80.013 0-44.19-35.823-80.013-80.013-80.014-44.19 0-80.013 35.823-80.014 80.014 0 44.19 35.823 80.013 80.014 80.013z" fill="black" stroke="transparent"></path></g><g transform="matrix(1,0,0,1,48.02442713055326,40.957783339330305)"><svg viewBox="0 0 85.02244233010049 99.1557299125464" height="99.1557299125464" width="85.02244233010049"><g><svg xmlns="http://www.w3.org/2000/svg" xmlns:xlink="http://www.w3.org/1999/xlink" version="1.1" x="0" y="0" viewBox="11.458035230197366 5 77.08598960662668 89.9" enable-background="new 0 0 100 100" xml:space="preserve" height="99.1557299125464" width="85.02244233010049" class="icon-dxe-0" data-fill-palette-color="accent" id="SvgjsSvg4398"><g fill="black"><path fill="black" d="M52.2 88.5V88.2H48.3C48.3 88.3 48.3 88.5 48.4 88.7 48.4 89.3 48.4 89.8 48.2 90.3 49.6 90.4 51.1 90.4 52.5 90.3 52.2 89.7 52.1 89.1 52.2 88.5"></path><path fill="black" d="M43.2 86.6C42.9 86.2 42.4 85.6 41.6 85.6 41.4 85.6 41.1 85.6 40.9 85.8 40.5 86 40.2 86.4 40 86.9 39.6 86.4 39 86 38.1 86 37.8 86 37.4 86.1 36.9 86.2 36.5 86.4 36.2 86.8 36 87.3 35.6 87.1 35 86.7 34.2 86.7 33.9 86.7 33.6 86.7 33.3 86.8 31.6 87.3 31.1 93.9 36.4 94.9 36.4 94.9 37.4 94.9 37.7 94 38.2 94.5 38.7 94.8 39.4 94.9 39.4 94.9 40.2 94.8 40.5 93.8 40.9 94.3 41.3 94.6 41.8 94.6H42.1C43 94.4 43.5 93.6 43.7 92.5 44.7 91.8 46.4 90.4 46.3 88.7 46.1 86.8 43.8 86.6 43.2 86.6"></path><path fill="black" d="M67.1 86.7C66.8 86.6 66.5 86.6 66.2 86.6 65.4 86.6 64.8 87 64.4 87.2 64.2 86.6 63.9 86.2 63.5 86.1 63.1 85.9 62.7 85.9 62.3 85.9 61.5 85.9 60.9 86.3 60.5 86.7 60.3 86.2 60 85.8 59.6 85.6 59.3 85.5 59.1 85.4 58.9 85.4 58.1 85.4 57.6 86 57.3 86.4 56.6 86.4 54.3 86.6 54.2 88.6 54.1 90.3 55.7 91.7 56.8 92.4 57 93.5 57.5 94.3 58.4 94.5H58.7C59.2 94.5 59.7 94.2 60 93.7 60.3 94.7 61.1 94.8 61.1 94.8 61.7 94.7 62.3 94.4 62.8 93.9 63.1 94.7 64.1 94.8 64.1 94.8 69.3 93.8 68.9 87.3 67.1 86.7"></path><path fill="black" d="M85 49.4C84.6 49.2 84.2 49 83.8 48.9 83.7 48.9 83 48.7 82.1 48.7 79.7 48.8 75 50.4 72.5 60.8 69.3 73.7 75.4 78.7 75.4 78.7S82.7 78.1 86.7 66.3C90.2 55.7 88.2 51.2 85 49.4"></path><path fill="black" d="M27.6 61.4C24.6 51.2 20 49.7 17.5 49.7 16.5 49.7 15.9 49.9 15.9 49.9 12.1 51.3 9.3 55.8 13.7 67.4 18.1 79.1 25.5 79.3 25.5 79.3S31.3 74.1 27.6 61.4"></path><circle fill="black" cx="41.4" cy="46.3" r="2.3"></circle><circle fill="black" cx="58.5" cy="46.3" r="2.3"></circle><polygon fill="black" points="45.9,70.5 40,70.5 43,73.1  "></polygon><polygon fill="black" points="50.7,73.1 53.6,70.5 47.7,70.5  "></polygon><polygon fill="black" points="50.8,82.4 53.7,79.8 47.8,79.8  "></polygon><polygon fill="black" points="44,75.2 47,77.9 49.9,75.2  "></polygon><polygon fill="black" points="54.5,77.9 57.4,75.2 51.5,75.2  "></polygon><polygon fill="black" points="61.3,70.5 55.4,70.5 58.4,73.1  "></polygon><polygon fill="black" points="27.3,38.7 25.9,32.2 23.4,32.2 21.9,38.7 22,38.7 21.9,39 27.3,39 27.3,38.7 27.3,38.7  "></polygon><path fill="black" d="M71 60.4C73.6 49.9 78.4 47.5 81.5 47.2 79.1 37.5 73.7 32.2 73.7 32.2V24.4L50.4 36.2 49.5 36.7 48.6 36.2 27.9 25.5V31.9L29.3 38.3 29.9 40.8H21.1C20.1 42.9 19.3 45.4 18.6 48.3 21.6 48.7 26.2 51.1 29.1 61 33 74.5 26.8 80.3 26.5 80.6L26.3 80.8C28 82.7 30 84.3 31.9 85.5 32.1 85.3 32.4 85.2 32.7 85.1 33.2 84.9 33.7 84.9 34.2 84.9 34.6 84.9 35 85 35.3 85 35.6 84.8 35.9 84.6 36.1 84.5S36.6 84.3 36.8 84.3C35.2 82.3 34.3 79.3 34.3 75 34.3 67 41.5 61.1 50.3 61.1S66.3 67.1 66.3 75C66.3 79.3 65.4 82.2 63.8 84.2 63.9 84.2 64.1 84.3 64.2 84.3 64.5 84.4 64.7 84.6 65 84.8 65.3 84.7 65.7 84.7 66.1 84.7 66.6 84.7 67.1 84.8 67.6 84.9 67.9 85 68.2 85.2 68.5 85.4 70.6 84.1 72.7 82.3 74.5 80.2L74.3 80C74.2 79.6 67.7 74 71 60.4M39.1 56.4C33.5 56.4 29 51.9 29 46.3S33.5 36.2 39.1 36.2 49.2 40.7 49.2 46.3 44.7 56.4 39.1 56.4M50.3 59.5L47.2 55.7S48.2 53.6 50 53.6 53.1 55.4 53.1 55.4zM61.7 56.4C56.1 56.4 51.6 51.9 51.6 46.3S56.1 36.2 61.7 36.2 71.8 40.7 71.8 46.3 67.3 56.4 61.7 56.4"></path><polygon fill="black" points="23.4,20.8 23.4,30.1 25.8,30.1 25.8,22.1 49.5,34.4 76.5,20.5 79.6,18.6 49.5,5 19.3,18.6    20.5,19.4  "></polygon></g></svg></g></svg></g></svg></g></svg></g></svg></g><defs><mask></mask></defs></svg><rect width="395.52" height="113.37543475157706" fill="black" stroke="none" visibility="hidden"></rect></g></mask><linearGradient x1="0" x2="1" y1="0.5" y2="0.5" id="738073e4-d289-4154-8b17-2f9815aaa89e"><stop stop-color="#f00b51" offset="0"></stop><stop stop-color="#730062" offset="1"></stop></linearGradient><rect width="395.52" height="113.37543475157706" fill="url(#738073e4-d289-4154-8b17-2f9815aaa89e)" mask="url(#ee212ce6-d472-4cb3-915c-b62287b6eb5a)" data-fill-palette-color="primary"></rect><mask id="e891ba75-45da-4203-928b-2b7bdf6771d2"><g id="SvgjsG4418"><svg viewBox="0 0 395.52 113.37543475157706" height="113.37543475157706" width="395.52"><g><svg viewBox="0 0 631.6828630882758 181.07129659120702" height="113.37543475157706" width="395.52"><g transform="matrix(1,0,0,1,0,12.887813182136355)"><svg viewBox="0 0 395.52 155.2956702269343" height="155.2956702269343" width="395.52"><g id="SvgjsG4417"><svg viewBox="0 0 395.52 155.2956702269343" height="155.2956702269343" width="395.52" id="SvgjsSvg4416"><g><svg viewBox="0 0 395.52 116.68184503521927" height="116.68184503521927" width="395.52"><g transform="matrix(1,0,0,1,0,0)"><svg width="395.52" viewBox="0.68 -37.94 128.92082180132797 38.04" height="116.68184503521927" data-palette-color="url(#738073e4-d289-4154-8b17-2f9815aaa89e)"><g class="wordmark-text-0" data-fill-palette-color="primary" id="SvgjsG4415"></g></svg></g></svg></g><g transform="matrix(1,0,0,1,163.31020799999996,144.2276282837537)"><svg viewBox="0 0 232.20979200000002 11.068041943180626" height="11.068041943180626" width="232.20979200000002"><g transform="matrix(1,0,0,1,0,0)"><svg width="232.20979200000002" viewBox="0.95 -33.48 715.3399999999999 34.11" height="11.068041943180626" data-palette-color="#636365"><path d="M15.5-9.6L11.93-9.6 0.95-31.95 5.33-31.95 11.2-19.73 13.55-14.43 13.88-14.43 16.23-19.73 22.08-31.95 26.48-31.95 15.5-9.6ZM15.75 0L11.68 0 11.68-13.48 15.75-13.48 15.75 0ZM36.5 0.63L36.5 0.63Q31.25 0.63 28.54-2.21 25.82-5.05 25.82-10.38L25.82-10.38 25.82-14.1Q25.82-19.4 28.55-22.23 31.27-25.05 36.5-25.05L36.5-25.05Q41.75-25.05 44.46-22.23 47.17-19.4 47.17-14.1L47.17-14.1 47.17-10.38Q47.17-5.05 44.46-2.21 41.75 0.63 36.5 0.63ZM36.5-2.68L36.5-2.68Q39.75-2.68 41.44-4.6 43.12-6.53 43.12-10.15L43.12-10.15 43.12-14.33Q43.12-17.93 41.44-19.84 39.75-21.75 36.5-21.75L36.5-21.75Q33.27-21.75 31.57-19.84 29.87-17.93 29.87-14.33L29.87-14.33 29.87-10.15Q29.87-6.53 31.57-4.6 33.27-2.68 36.5-2.68ZM52.5-24.4L56.52-24.4 56.52-9.22Q56.52-7.3 57.06-5.86 57.6-4.42 58.82-3.64 60.05-2.85 62.12-2.85L62.12-2.85Q64.07-2.85 65.47-3.56 66.87-4.28 67.76-5.53 68.65-6.78 68.97-8.35L68.97-8.35 69.7-5.48 68.82-5.48Q68.45-3.83 67.45-2.46 66.45-1.1 64.76-0.29 63.07 0.53 60.6 0.53L60.6 0.53Q57.72 0.53 55.93-0.56 54.15-1.65 53.32-3.74 52.5-5.83 52.5-8.78L52.5-8.78 52.5-24.4ZM68.8-24.4L72.84-24.4 72.84 0 68.8 0 68.97-5.85 68.8-6.1 68.8-24.4ZM83.29-14.93L83.29-14.93 82.37-18.05 83.37-18.1Q84.17-21.2 86.12-22.99 88.07-24.78 91.29-24.78L91.29-24.78Q92.09-24.78 92.73-24.65 93.37-24.53 93.87-24.35L93.87-24.35 94.12-20.43Q93.49-20.63 92.73-20.75 91.97-20.88 91.04-20.88L91.04-20.88Q88.29-20.88 86.26-19.35 84.22-17.82 83.29-14.93ZM83.49 0L79.44 0 79.44-24.4 83.39-24.4 83.19-17.2 83.49-16.9 83.49 0ZM124.34-10.63L115.16-10.63 115.16-14.08 124.24-14.08Q127.51-14.08 128.99-15.71 130.46-17.35 130.46-20.23L130.46-20.23 130.46-22.4Q130.46-25.33 129-26.93 127.54-28.53 124.29-28.53L124.29-28.53 115.14-28.53 115.14-31.95 124.36-31.95Q129.71-31.95 132.15-29.44 134.59-26.93 134.59-22.53L134.59-22.53 134.59-20.13Q134.59-15.68 132.13-13.15 129.66-10.63 124.34-10.63L124.34-10.63ZM116.56 0L112.46 0 112.46-31.95 116.54-31.95 116.54-13.05 116.56-11.2 116.56 0ZM157.86 0L153.84 0 154.01-5.93 153.86-6.55 153.86-14.33 153.89-15.75Q153.89-18.73 152.37-20.15 150.86-21.58 147.59-21.58L147.59-21.58Q144.96-21.58 142.77-20.83 140.59-20.08 138.89-19.07L138.89-19.07 139.26-22.53Q140.21-23.1 141.52-23.66 142.84-24.23 144.52-24.6 146.21-24.98 148.24-24.98L148.24-24.98Q150.86-24.98 152.7-24.34 154.54-23.7 155.67-22.5 156.81-21.3 157.34-19.6 157.86-17.9 157.86-15.8L157.86-15.8 157.86 0ZM145.44 0.53L145.44 0.53Q141.81 0.53 139.87-1.24 137.94-3 137.94-6.28L137.94-6.28 137.94-7Q137.94-10.38 140.02-12.04 142.11-13.7 146.66-14.35L146.66-14.35 154.39-15.45 154.61-12.5 147.16-11.43Q144.36-11.03 143.16-10.06 141.96-9.1 141.96-7.23L141.96-7.23 141.96-6.83Q141.96-4.9 143.15-3.88 144.34-2.85 146.71-2.85L146.71-2.85Q148.81-2.85 150.31-3.58 151.81-4.3 152.74-5.53 153.66-6.75 153.99-8.25L153.99-8.25 154.61-5.5 153.84-5.5Q153.49-3.9 152.52-2.53 151.56-1.15 149.84-0.31 148.11 0.53 145.44 0.53ZM172.71 0.5L172.71 0.5Q169.88 0.5 168.16-0.35 166.43-1.2 165.66-2.93 164.88-4.65 164.88-7.23L164.88-7.23 164.88-22.63 168.88-22.63 168.88-7.7Q168.88-5.3 169.98-4.16 171.08-3.03 173.68-3.03L173.68-3.03Q175.16-3.03 176.52-3.35 177.88-3.68 179.08-4.28L179.08-4.28 178.71-0.8Q177.53-0.2 175.96 0.15 174.38 0.5 172.71 0.5ZM178.46-20.8L160.88-20.8 160.88-24.05 178.83-24.05 178.46-20.8ZM168.78-23.65L164.91-23.65 164.88-30.5 168.96-31.03 168.78-23.65ZM203.98 0L199.93 0 199.93-15.18Q199.93-17.15 199.39-18.57 198.86-20 197.64-20.79 196.43-21.58 194.33-21.58L194.33-21.58Q192.41-21.58 191.01-20.85 189.61-20.13 188.74-18.89 187.88-17.65 187.53-16.07L187.53-16.07 186.63-18.95 187.68-18.95Q188.06-20.6 189.06-21.96 190.06-23.33 191.74-24.14 193.43-24.95 195.86-24.95L195.86-24.95Q198.76-24.95 200.54-23.85 202.33-22.75 203.16-20.69 203.98-18.63 203.98-15.63L203.98-15.63 203.98 0ZM187.66 0L183.61 0 183.61-33.13 187.63-33.13 187.63-25.18 187.51-18.18 187.66-17.85 187.66 0ZM233.03 0.5L233.03 0.5Q230.2 0.5 228.48-0.35 226.75-1.2 225.98-2.93 225.2-4.65 225.2-7.23L225.2-7.23 225.2-22.63 229.2-22.63 229.2-7.7Q229.2-5.3 230.3-4.16 231.4-3.03 234-3.03L234-3.03Q235.48-3.03 236.84-3.35 238.2-3.68 239.4-4.28L239.4-4.28 239.03-0.8Q237.85-0.2 236.28 0.15 234.7 0.5 233.03 0.5ZM238.78-20.8L221.2-20.8 221.2-24.05 239.15-24.05 238.78-20.8ZM229.1-23.65L225.23-23.65 225.2-30.5 229.28-31.03 229.1-23.65ZM252.97 0.63L252.97 0.63Q247.72 0.63 245.01-2.21 242.3-5.05 242.3-10.38L242.3-10.38 242.3-14.1Q242.3-19.4 245.02-22.23 247.75-25.05 252.97-25.05L252.97-25.05Q258.22-25.05 260.94-22.23 263.65-19.4 263.65-14.1L263.65-14.1 263.65-10.38Q263.65-5.05 260.94-2.21 258.22 0.63 252.97 0.63ZM252.97-2.68L252.97-2.68Q256.22-2.68 257.91-4.6 259.6-6.53 259.6-10.15L259.6-10.15 259.6-14.33Q259.6-17.93 257.91-19.84 256.22-21.75 252.97-21.75L252.97-21.75Q249.75-21.75 248.05-19.84 246.35-17.93 246.35-14.33L246.35-14.33 246.35-10.15Q246.35-6.53 248.05-4.6 249.75-2.68 252.97-2.68ZM285.29 0L281.09 0 291.09-31.95 297.64-31.95 307.67 0 303.47 0 294.69-29.15 294.07-29.15 285.29 0ZM301.64-9.43L287.09-9.43 287.09-12.88 301.64-12.88 301.64-9.43ZM320.94 0.55L320.94 0.55Q315.69 0.55 313.13-2.29 310.57-5.13 310.57-10.33L310.57-10.33 310.57-14.13Q310.57-19.35 313.14-22.16 315.72-24.98 320.94-24.98L320.94-24.98Q322.49-24.98 323.77-24.69 325.04-24.4 326.05-23.94 327.07-23.48 327.77-22.98L327.77-22.98 328.12-19.45Q326.94-20.35 325.33-20.98 323.72-21.6 321.54-21.6L321.54-21.6Q318.04-21.6 316.33-19.66 314.62-17.73 314.62-14.03L314.62-14.03 314.62-10.43Q314.62-6.8 316.33-4.85 318.04-2.9 321.54-2.9L321.54-2.9Q323.79-2.9 325.43-3.53 327.07-4.15 328.34-5.05L328.34-5.05 327.97-1.48Q326.87-0.73 325.09-0.09 323.32 0.55 320.94 0.55ZM351.74 0L347.71 0 347.89-5.93 347.74-6.55 347.74-14.33 347.76-15.75Q347.76-18.73 346.25-20.15 344.74-21.58 341.46-21.58L341.46-21.58Q338.84-21.58 336.65-20.83 334.46-20.08 332.76-19.07L332.76-19.07 333.14-22.53Q334.09-23.1 335.4-23.66 336.71-24.23 338.4-24.6 340.09-24.98 342.11-24.98L342.11-24.98Q344.74-24.98 346.58-24.34 348.41-23.7 349.55-22.5 350.69-21.3 351.21-19.6 351.74-17.9 351.74-15.8L351.74-15.8 351.74 0ZM339.31 0.53L339.31 0.53Q335.69 0.53 333.75-1.24 331.81-3 331.81-6.28L331.81-6.28 331.81-7Q331.81-10.38 333.9-12.04 335.99-13.7 340.54-14.35L340.54-14.35 348.26-15.45 348.49-12.5 341.04-11.43Q338.24-11.03 337.04-10.06 335.84-9.1 335.84-7.23L335.84-7.23 335.84-6.83Q335.84-4.9 337.03-3.88 338.21-2.85 340.59-2.85L340.59-2.85Q342.69-2.85 344.19-3.58 345.69-4.3 346.61-5.53 347.54-6.75 347.86-8.25L347.86-8.25 348.49-5.5 347.71-5.5Q347.36-3.9 346.4-2.53 345.44-1.15 343.71-0.31 341.99 0.53 339.31 0.53ZM365.99 0.53L365.99 0.53Q361.59 0.53 359.29-2.2 356.99-4.93 356.99-10.15L356.99-10.15 356.99-14.18Q356.99-19.43 359.31-22.19 361.64-24.95 366.16-24.95L366.16-24.95Q368.41-24.95 370.06-24.19 371.71-23.43 372.74-22.05 373.76-20.68 374.11-18.8L374.11-18.8 375.44-18.8 374.24-15.08Q374.16-17.23 373.27-18.69 372.39-20.15 370.87-20.9 369.36-21.65 367.41-21.65L367.41-21.65Q364.31-21.65 362.67-19.85 361.04-18.05 361.04-14.55L361.04-14.55 361.04-9.9Q361.04-6.45 362.67-4.65 364.31-2.85 367.41-2.85L367.41-2.85Q369.26-2.85 370.69-3.56 372.11-4.28 373.05-5.54 373.99-6.8 374.34-8.4L374.34-8.4 375.34-5.5 374.14-5.5Q373.79-3.85 372.8-2.48 371.81-1.1 370.15-0.29 368.49 0.53 365.99 0.53ZM378.19 0L374.14 0 374.31-5.9 374.24-7.2 374.24-17.4 374.26-18.25 374.16-25.18 374.16-33.13 378.19-33.13 378.19 0ZM395.03 0.55L395.03 0.55Q389.46 0.55 386.63-2.18 383.81-4.9 383.81-9.98L383.81-9.98 383.81-14.33Q383.81-19.48 386.43-22.26 389.06-25.05 394.11-25.05L394.11-25.05Q397.51-25.05 399.78-23.79 402.06-22.53 403.21-20.2 404.36-17.88 404.36-14.65L404.36-14.65 404.36-13.75Q404.36-12.95 404.3-12.15 404.23-11.35 404.13-10.58L404.13-10.58 400.41-10.58Q400.46-11.78 400.47-12.85 400.48-13.93 400.48-14.83L400.48-14.83Q400.48-17.05 399.77-18.59 399.06-20.13 397.65-20.94 396.23-21.75 394.11-21.75L394.11-21.75Q390.96-21.75 389.38-19.93 387.81-18.1 387.81-14.7L387.81-14.7 387.81-12.38 387.83-11.88 387.83-9.55Q387.83-8.03 388.28-6.8 388.73-5.58 389.7-4.69 390.66-3.8 392.15-3.34 393.63-2.88 395.68-2.88L395.68-2.88Q398.06-2.88 400.11-3.5 402.16-4.13 403.96-5.2L403.96-5.2 403.58-1.7Q401.96-0.68 399.81-0.06 397.66 0.55 395.03 0.55ZM403.28-10.58L385.93-10.58 385.93-13.63 403.28-13.63 403.28-10.58ZM444.28 0L440.23 0 440.23-15.28Q440.23-17.2 439.74-18.61 439.26-20.03 438.14-20.8 437.03-21.58 435.16-21.58L435.16-21.58Q433.38-21.58 432.08-20.85 430.78-20.13 429.98-18.91 429.18-17.7 428.86-16.15L428.86-16.15 428.23-19.03 428.73-19.03Q429.13-20.6 430.08-21.95 431.03-23.3 432.66-24.13 434.28-24.95 436.68-24.95L436.68-24.95Q439.41-24.95 441.07-23.88 442.73-22.8 443.51-20.74 444.28-18.68 444.28-15.73L444.28-15.73 444.28 0ZM413.81 0L409.76 0 409.76-24.4 413.81-24.4 413.63-18.55 413.81-18.3 413.81 0ZM429.03 0L425.01 0 425.01-15.28Q425.01-17.2 424.52-18.61 424.03-20.03 422.93-20.8 421.83-21.58 419.96-21.58L419.96-21.58Q418.16-21.58 416.86-20.85 415.56-20.13 414.76-18.89 413.96-17.65 413.63-16.07L413.63-16.07 412.88-18.95 413.78-18.95Q414.16-20.6 415.08-21.96 416.01-23.33 417.59-24.14 419.18-24.95 421.46-24.95L421.46-24.95Q424.83-24.95 426.59-23.2 428.36-21.45 428.81-18.1L428.81-18.1Q428.93-17.6 428.98-17.01 429.03-16.43 429.03-15.85L429.03-15.85 429.03 0ZM454.68 0L450.63 0 450.63-24.4 454.68-24.4 454.68 0ZM452.65-28.4L452.65-28.4Q451.4-28.4 450.79-29.06 450.18-29.73 450.18-30.88L450.18-30.88 450.18-31Q450.18-32.18 450.79-32.83 451.4-33.48 452.65-33.48L452.65-33.48Q453.9-33.48 454.53-32.83 455.15-32.18 455.15-31L455.15-31 455.15-30.88Q455.15-29.7 454.53-29.05 453.9-28.4 452.65-28.4ZM470.78 0.55L470.78 0.55Q465.53 0.55 462.96-2.29 460.4-5.13 460.4-10.33L460.4-10.33 460.4-14.13Q460.4-19.35 462.98-22.16 465.55-24.98 470.78-24.98L470.78-24.98Q472.33-24.98 473.6-24.69 474.88-24.4 475.89-23.94 476.9-23.48 477.6-22.98L477.6-22.98 477.95-19.45Q476.78-20.35 475.16-20.98 473.55-21.6 471.38-21.6L471.38-21.6Q467.88-21.6 466.16-19.66 464.45-17.73 464.45-14.03L464.45-14.03 464.45-10.43Q464.45-6.8 466.16-4.85 467.88-2.9 471.38-2.9L471.38-2.9Q473.63-2.9 475.26-3.53 476.9-4.15 478.18-5.05L478.18-5.05 477.8-1.48Q476.7-0.73 474.93-0.09 473.15 0.55 470.78 0.55ZM501.55 0L497.45 0 497.45-31.95 501.55-31.95 501.55 0ZM517.37 0L498.67 0 498.67-3.48 517.37-3.48 517.37 0ZM516.85-14.58L499.8-14.58 499.8-18.03 516.85-18.03 516.85-14.58ZM517.22-28.48L498.65-28.48 498.65-31.95 517.22-31.95 517.22-28.48ZM525.44 0L521.02 0 529.02-13.28 529.02-12.13 521.17-24.4 525.62-24.4 531.77-14.48 532.12-14.48 538.24-24.4 542.69-24.4 534.84-12.13 534.84-13.28 542.84 0 538.42 0 532.12-10.6 531.77-10.6 525.44 0ZM555.59 0.55L555.59 0.55Q550.34 0.55 547.78-2.29 545.21-5.13 545.21-10.33L545.21-10.33 545.21-14.13Q545.21-19.35 547.79-22.16 550.36-24.98 555.59-24.98L555.59-24.98Q557.14-24.98 558.41-24.69 559.69-24.4 560.7-23.94 561.71-23.48 562.41-22.98L562.41-22.98 562.76-19.45Q561.59-20.35 559.98-20.98 558.36-21.6 556.19-21.6L556.19-21.6Q552.69-21.6 550.98-19.66 549.26-17.73 549.26-14.03L549.26-14.03 549.26-10.43Q549.26-6.8 550.98-4.85 552.69-2.9 556.19-2.9L556.19-2.9Q558.44-2.9 560.08-3.53 561.71-4.15 562.99-5.05L562.99-5.05 562.61-1.48Q561.51-0.73 559.74-0.09 557.96 0.55 555.59 0.55ZM577.66 0.55L577.66 0.55Q572.09 0.55 569.26-2.18 566.44-4.9 566.44-9.98L566.44-9.98 566.44-14.33Q566.44-19.48 569.06-22.26 571.69-25.05 576.74-25.05L576.74-25.05Q580.14-25.05 582.41-23.79 584.69-22.53 585.84-20.2 586.99-17.88 586.99-14.65L586.99-14.65 586.99-13.75Q586.99-12.95 586.92-12.15 586.86-11.35 586.76-10.58L586.76-10.58 583.04-10.58Q583.09-11.78 583.1-12.85 583.11-13.93 583.11-14.83L583.11-14.83Q583.11-17.05 582.4-18.59 581.69-20.13 580.27-20.94 578.86-21.75 576.74-21.75L576.74-21.75Q573.59-21.75 572.01-19.93 570.44-18.1 570.44-14.7L570.44-14.7 570.44-12.38 570.46-11.88 570.46-9.55Q570.46-8.03 570.91-6.8 571.36-5.58 572.32-4.69 573.29-3.8 574.77-3.34 576.26-2.88 578.31-2.88L578.31-2.88Q580.69-2.88 582.74-3.5 584.79-4.13 586.59-5.2L586.59-5.2 586.21-1.7Q584.59-0.68 582.44-0.06 580.29 0.55 577.66 0.55ZM585.91-10.58L568.56-10.58 568.56-13.63 585.91-13.63 585.91-10.58ZM596.53 0L592.51 0 592.51-33.13 596.53-33.13 596.53 0ZM607.83 0L603.81 0 603.81-33.13 607.83-33.13 607.83 0ZM624.8 0.55L624.8 0.55Q619.23 0.55 616.4-2.18 613.58-4.9 613.58-9.98L613.58-9.98 613.58-14.33Q613.58-19.48 616.2-22.26 618.83-25.05 623.88-25.05L623.88-25.05Q627.28-25.05 629.55-23.79 631.83-22.53 632.98-20.2 634.13-17.88 634.13-14.65L634.13-14.65 634.13-13.75Q634.13-12.95 634.07-12.15 634-11.35 633.9-10.58L633.9-10.58 630.18-10.58Q630.23-11.78 630.24-12.85 630.25-13.93 630.25-14.83L630.25-14.83Q630.25-17.05 629.54-18.59 628.83-20.13 627.42-20.94 626-21.75 623.88-21.75L623.88-21.75Q620.73-21.75 619.15-19.93 617.58-18.1 617.58-14.7L617.58-14.7 617.58-12.38 617.6-11.88 617.6-9.55Q617.6-8.03 618.05-6.8 618.5-5.58 619.47-4.69 620.43-3.8 621.92-3.34 623.4-2.88 625.45-2.88L625.45-2.88Q627.83-2.88 629.88-3.5 631.93-4.13 633.73-5.2L633.73-5.2 633.35-1.7Q631.73-0.68 629.58-0.06 627.43 0.55 624.8 0.55ZM633.05-10.58L615.7-10.58 615.7-13.63 633.05-13.63 633.05-10.58ZM659.9 0L655.85 0 655.85-15.18Q655.85-17.15 655.31-18.57 654.78-20 653.56-20.79 652.35-21.58 650.25-21.58L650.25-21.58Q648.33-21.58 646.91-20.85 645.5-20.13 644.63-18.89 643.75-17.65 643.4-16.07L643.4-16.07 642.68-18.95 643.55-18.95Q643.95-20.6 644.95-21.96 645.95-23.33 647.64-24.14 649.33-24.95 651.78-24.95L651.78-24.95Q654.68-24.95 656.46-23.85 658.25-22.75 659.08-20.69 659.9-18.63 659.9-15.63L659.9-15.63 659.9 0ZM643.58 0L639.53 0 639.53-24.4 643.58-24.4 643.4-18.55 643.58-18.32 643.58 0ZM675.57 0.55L675.57 0.55Q670.32 0.55 667.76-2.29 665.2-5.13 665.2-10.33L665.2-10.33 665.2-14.13Q665.2-19.35 667.77-22.16 670.35-24.98 675.57-24.98L675.57-24.98Q677.12-24.98 678.4-24.69 679.67-24.4 680.69-23.94 681.7-23.48 682.4-22.98L682.4-22.98 682.75-19.45Q681.57-20.35 679.96-20.98 678.35-21.6 676.17-21.6L676.17-21.6Q672.67-21.6 670.96-19.66 669.25-17.73 669.25-14.03L669.25-14.03 669.25-10.43Q669.25-6.8 670.96-4.85 672.67-2.9 676.17-2.9L676.17-2.9Q678.42-2.9 680.06-3.53 681.7-4.15 682.97-5.05L682.97-5.05 682.6-1.48Q681.5-0.73 679.72-0.09 677.95 0.55 675.57 0.55ZM697.65 0.55L697.65 0.55Q692.07 0.55 689.25-2.18 686.42-4.9 686.42-9.98L686.42-9.98 686.42-14.33Q686.42-19.48 689.05-22.26 691.67-25.05 696.72-25.05L696.72-25.05Q700.12-25.05 702.4-23.79 704.67-22.53 705.82-20.2 706.97-17.88 706.97-14.65L706.97-14.65 706.97-13.75Q706.97-12.95 706.91-12.15 706.85-11.35 706.75-10.58L706.75-10.58 703.02-10.58Q703.07-11.78 703.08-12.85 703.1-13.93 703.1-14.83L703.1-14.83Q703.1-17.05 702.38-18.59 701.67-20.13 700.26-20.94 698.85-21.75 696.72-21.75L696.72-21.75Q693.57-21.75 692-19.93 690.42-18.1 690.42-14.7L690.42-14.7 690.42-12.38 690.45-11.88 690.45-9.55Q690.45-8.03 690.9-6.8 691.35-5.58 692.31-4.69 693.27-3.8 694.76-3.34 696.25-2.88 698.3-2.88L698.3-2.88Q700.67-2.88 702.72-3.5 704.77-4.13 706.57-5.2L706.57-5.2 706.2-1.7Q704.57-0.68 702.42-0.06 700.27 0.55 697.65 0.55ZM705.9-10.58L688.55-10.58 688.55-13.63 705.9-13.63 705.9-10.58ZM713.77 0.48L713.77 0.48Q712.47 0.48 711.86-0.24 711.24-0.95 711.24-2.25L711.24-2.25 711.24-2.5Q711.24-3.78 711.86-4.48 712.47-5.18 713.77-5.18L713.77-5.18Q715.04-5.18 715.67-4.48 716.29-3.78 716.29-2.5L716.29-2.5 716.29-2.25Q716.29-0.95 715.67-0.24 715.04 0.48 713.77 0.48Z" opacity="1" transform="matrix(1,0,0,1,0,0)" fill="black" class="slogan-text-1" id="SvgjsPath4414"></path></svg></g></svg></g></svg></g></svg></g><g transform="matrix(1,0,0,1,450.61156649706885,0)"><svg viewBox="0 0 181.07129659120702 181.07129659120702" height="181.07129659120702" width="181.07129659120702"><g><svg></svg></g><g id="SvgjsG4413"><svg viewBox="0 0 181.07129659120702 181.07129659120702" height="181.07129659120702" width="181.07129659120702"><g><path d="M0 90.536c0-50.001 40.534-90.536 90.536-90.536 50.001 0 90.536 40.534 90.535 90.536 0 50.001-40.534 90.536-90.535 90.535-50.001 0-90.536-40.534-90.536-90.535zM90.536 170.549c44.19 0 80.013-35.823 80.013-80.013 0-44.19-35.823-80.013-80.013-80.014-44.19 0-80.013 35.823-80.014 80.014 0 44.19 35.823 80.013 80.014 80.013z" fill="white" stroke="transparent"></path></g><g transform="matrix(1,0,0,1,48.02442713055326,40.957783339330305)"><svg viewBox="0 0 85.02244233010049 99.1557299125464" height="99.1557299125464" width="85.02244233010049"><g><svg xmlns="http://www.w3.org/2000/svg" xmlns:xlink="http://www.w3.org/1999/xlink" version="1.1" x="0" y="0" viewBox="11.458035230197366 5 77.08598960662668 89.9" enable-background="new 0 0 100 100" xml:space="preserve" height="99.1557299125464" width="85.02244233010049" class="icon-dxe-0" data-fill-palette-color="accent" id="SvgjsSvg4412"><g fill="white"><path fill="white" d="M52.2 88.5V88.2H48.3C48.3 88.3 48.3 88.5 48.4 88.7 48.4 89.3 48.4 89.8 48.2 90.3 49.6 90.4 51.1 90.4 52.5 90.3 52.2 89.7 52.1 89.1 52.2 88.5"></path><path fill="white" d="M43.2 86.6C42.9 86.2 42.4 85.6 41.6 85.6 41.4 85.6 41.1 85.6 40.9 85.8 40.5 86 40.2 86.4 40 86.9 39.6 86.4 39 86 38.1 86 37.8 86 37.4 86.1 36.9 86.2 36.5 86.4 36.2 86.8 36 87.3 35.6 87.1 35 86.7 34.2 86.7 33.9 86.7 33.6 86.7 33.3 86.8 31.6 87.3 31.1 93.9 36.4 94.9 36.4 94.9 37.4 94.9 37.7 94 38.2 94.5 38.7 94.8 39.4 94.9 39.4 94.9 40.2 94.8 40.5 93.8 40.9 94.3 41.3 94.6 41.8 94.6H42.1C43 94.4 43.5 93.6 43.7 92.5 44.7 91.8 46.4 90.4 46.3 88.7 46.1 86.8 43.8 86.6 43.2 86.6"></path><path fill="white" d="M67.1 86.7C66.8 86.6 66.5 86.6 66.2 86.6 65.4 86.6 64.8 87 64.4 87.2 64.2 86.6 63.9 86.2 63.5 86.1 63.1 85.9 62.7 85.9 62.3 85.9 61.5 85.9 60.9 86.3 60.5 86.7 60.3 86.2 60 85.8 59.6 85.6 59.3 85.5 59.1 85.4 58.9 85.4 58.1 85.4 57.6 86 57.3 86.4 56.6 86.4 54.3 86.6 54.2 88.6 54.1 90.3 55.7 91.7 56.8 92.4 57 93.5 57.5 94.3 58.4 94.5H58.7C59.2 94.5 59.7 94.2 60 93.7 60.3 94.7 61.1 94.8 61.1 94.8 61.7 94.7 62.3 94.4 62.8 93.9 63.1 94.7 64.1 94.8 64.1 94.8 69.3 93.8 68.9 87.3 67.1 86.7"></path><path fill="white" d="M85 49.4C84.6 49.2 84.2 49 83.8 48.9 83.7 48.9 83 48.7 82.1 48.7 79.7 48.8 75 50.4 72.5 60.8 69.3 73.7 75.4 78.7 75.4 78.7S82.7 78.1 86.7 66.3C90.2 55.7 88.2 51.2 85 49.4"></path><path fill="white" d="M27.6 61.4C24.6 51.2 20 49.7 17.5 49.7 16.5 49.7 15.9 49.9 15.9 49.9 12.1 51.3 9.3 55.8 13.7 67.4 18.1 79.1 25.5 79.3 25.5 79.3S31.3 74.1 27.6 61.4"></path><circle fill="white" cx="41.4" cy="46.3" r="2.3"></circle><circle fill="white" cx="58.5" cy="46.3" r="2.3"></circle><polygon fill="white" points="45.9,70.5 40,70.5 43,73.1  "></polygon><polygon fill="white" points="50.7,73.1 53.6,70.5 47.7,70.5  "></polygon><polygon fill="white" points="50.8,82.4 53.7,79.8 47.8,79.8  "></polygon><polygon fill="white" points="44,75.2 47,77.9 49.9,75.2  "></polygon><polygon fill="white" points="54.5,77.9 57.4,75.2 51.5,75.2  "></polygon><polygon fill="white" points="61.3,70.5 55.4,70.5 58.4,73.1  "></polygon><polygon fill="white" points="27.3,38.7 25.9,32.2 23.4,32.2 21.9,38.7 22,38.7 21.9,39 27.3,39 27.3,38.7 27.3,38.7  "></polygon><path fill="white" d="M71 60.4C73.6 49.9 78.4 47.5 81.5 47.2 79.1 37.5 73.7 32.2 73.7 32.2V24.4L50.4 36.2 49.5 36.7 48.6 36.2 27.9 25.5V31.9L29.3 38.3 29.9 40.8H21.1C20.1 42.9 19.3 45.4 18.6 48.3 21.6 48.7 26.2 51.1 29.1 61 33 74.5 26.8 80.3 26.5 80.6L26.3 80.8C28 82.7 30 84.3 31.9 85.5 32.1 85.3 32.4 85.2 32.7 85.1 33.2 84.9 33.7 84.9 34.2 84.9 34.6 84.9 35 85 35.3 85 35.6 84.8 35.9 84.6 36.1 84.5S36.6 84.3 36.8 84.3C35.2 82.3 34.3 79.3 34.3 75 34.3 67 41.5 61.1 50.3 61.1S66.3 67.1 66.3 75C66.3 79.3 65.4 82.2 63.8 84.2 63.9 84.2 64.1 84.3 64.2 84.3 64.5 84.4 64.7 84.6 65 84.8 65.3 84.7 65.7 84.7 66.1 84.7 66.6 84.7 67.1 84.8 67.6 84.9 67.9 85 68.2 85.2 68.5 85.4 70.6 84.1 72.7 82.3 74.5 80.2L74.3 80C74.2 79.6 67.7 74 71 60.4M39.1 56.4C33.5 56.4 29 51.9 29 46.3S33.5 36.2 39.1 36.2 49.2 40.7 49.2 46.3 44.7 56.4 39.1 56.4M50.3 59.5L47.2 55.7S48.2 53.6 50 53.6 53.1 55.4 53.1 55.4zM61.7 56.4C56.1 56.4 51.6 51.9 51.6 46.3S56.1 36.2 61.7 36.2 71.8 40.7 71.8 46.3 67.3 56.4 61.7 56.4"></path><polygon fill="white" points="23.4,20.8 23.4,30.1 25.8,30.1 25.8,22.1 49.5,34.4 76.5,20.5 79.6,18.6 49.5,5 19.3,18.6    20.5,19.4  "></polygon></g></svg></g></svg></g></svg></g></svg></g></svg></g><defs><mask></mask></defs><mask><g id="SvgjsG4411"><svg viewBox="0 0 395.52 113.37543475157706" height="113.37543475157706" width="395.52"><g><svg viewBox="0 0 631.6828630882758 181.07129659120702" height="113.37543475157706" width="395.52"><g transform="matrix(1,0,0,1,0,12.887813182136355)"><svg viewBox="0 0 395.52 155.2956702269343" height="155.2956702269343" width="395.52"><g id="SvgjsG4410"><svg viewBox="0 0 395.52 155.2956702269343" height="155.2956702269343" width="395.52" id="SvgjsSvg4409"><g><svg viewBox="0 0 395.52 116.68184503521927" height="116.68184503521927" width="395.52"><g transform="matrix(1,0,0,1,0,0)"><svg width="395.52" viewBox="0.68 -37.94 128.92082180132797 38.04" height="116.68184503521927" data-palette-color="url(#738073e4-d289-4154-8b17-2f9815aaa89e)"><g class="wordmark-text-0" data-fill-palette-color="primary" id="SvgjsG4408"><path d="M0.68-26.27L0.68-26.27Q1.46-27.39 2.76-28.2 4.05-29 5.64-29.54 7.23-30.08 9.06-30.37 10.89-30.66 12.65-30.81 14.4-30.96 16.06-31.01 17.72-31.05 18.99-31.05L18.99-31.05Q19.09-31.05 19.43-31.03 19.78-31.01 20.17-30.98 20.56-30.96 20.87-30.96 21.19-30.96 21.34-30.96L21.34-30.96Q21.53-29.88 21.12-29.47 20.7-29.05 20.04-28.98 19.38-28.91 18.65-29.03 17.92-29.15 17.58-29.05L17.58-29.05Q17.09-29 16.04-28.78 14.99-28.56 13.72-28.3 12.45-28.03 11.01-27.71 9.57-27.39 8.28-27.12 6.98-26.86 5.96-26.61 4.93-26.37 4.44-26.27L4.44-26.27Q3.66-25.98 3.56-25.54 3.47-25.1 3.47-24.51L3.47-24.51Q3.47-23.49 3.59-22.22 3.71-20.95 3.88-19.7 4.05-18.46 4.22-17.43 4.39-16.41 4.44-15.92L4.44-15.92Q4.64-15.87 5.18-15.87 5.71-15.87 5.91-15.87L5.91-15.87Q7.03-15.87 8.11-16.06 9.18-16.26 10.25-16.5 11.33-16.75 12.45-16.92 13.57-17.09 14.75-17.09L14.75-17.09 14.75-15.28Q14.26-15.28 13.38-15.21 12.5-15.14 11.45-14.94 10.4-14.75 9.33-14.53 8.25-14.31 7.37-14.06 6.49-13.82 5.93-13.57 5.37-13.33 5.37-13.09L5.37-13.09 5.37-2.93Q7.67-2.93 9.94-3.08 12.21-3.22 14.5-3.39 16.8-3.56 19.09-3.71 21.39-3.86 23.68-3.86L23.68-3.86Q23.68-3.27 23.29-2.91 22.9-2.54 22.39-2.32 21.88-2.1 21.29-2 20.7-1.9 20.41-1.86L20.41-1.86Q20.21-1.81 19.19-1.71 18.16-1.61 16.65-1.42 15.14-1.22 13.28-1.03 11.43-0.83 9.62-0.63 7.81-0.44 6.2-0.27 4.59-0.1 3.52 0L3.52 0Q3.37 0.05 3.08 0.05L3.08 0.05Q3.08-6.49 2.66-13.16 2.25-19.82 0.68-26.27ZM24.75-7.08L24.75-7.08Q24.75-8.4 25.19-9.99 25.63-11.57 26.46-12.92 27.29-14.26 28.46-15.14 29.64-16.02 31.2-16.02L31.2-16.02Q32.37-16.02 33.27-15.8 34.18-15.58 34.98-15.06 35.79-14.55 36.5-13.84 37.2-13.13 37.99-12.21L37.99-12.21 37.69-37.26Q39.01-37.74 39.33-37.65 39.65-37.55 39.65-36.82L39.65-36.82Q39.65-36.72 39.62-36.52 39.6-36.33 39.6-36.28L39.6-36.28Q39.55-35.35 39.52-33.64 39.5-31.93 39.52-29.69 39.55-27.44 39.6-24.83 39.65-22.22 39.69-19.56 39.74-16.89 39.82-14.28 39.89-11.67 39.91-9.42 39.94-7.18 39.91-5.44 39.89-3.71 39.84-2.83L39.84-2.83Q39.3-1.71 38.35-1.12 37.4-0.54 36.3-0.27 35.2 0 34.03 0.05 32.86 0.1 31.83 0.1L31.83 0.1Q28.56 0.1 26.66-1.83 24.75-3.76 24.75-7.08ZM26.71-8.4L26.71-8.4Q26.71-7.18 26.9-5.98 27.1-4.79 27.59-3.86 28.07-2.93 28.95-2.37 29.83-1.81 31.2-1.81L31.2-1.81Q32.03-1.81 33.2-1.81 34.37-1.81 35.45-2.08 36.52-2.34 37.25-2.93 37.99-3.52 37.99-4.59L37.99-4.59Q37.99-5.86 37.62-7.5 37.25-9.13 36.5-10.62 35.74-12.11 34.59-13.16 33.44-14.21 31.88-14.21L31.88-14.21Q30.86-14.21 29.93-13.67 29-13.13 28.29-12.3 27.59-11.47 27.15-10.45 26.71-9.42 26.71-8.4ZM41.84-18.95L41.84-18.95Q41.84-19.19 42.16-19.43 42.48-19.68 42.94-19.82 43.4-19.97 43.84-20.02 44.28-20.07 44.48-19.87L44.48-19.87Q44.77-13.82 45.62-10.23 46.48-6.64 47.58-4.98 48.68-3.32 49.95-3.3 51.22-3.27 52.44-4.37 53.66-5.47 54.71-7.37 55.76-9.28 56.42-11.47 57.08-13.67 57.22-15.87 57.37-18.07 56.83-19.78L56.83-19.78 59.76-20.12Q59.81-19.38 60.03-17.7 60.25-16.02 60.52-13.89 60.79-11.77 61.13-9.47 61.47-7.18 61.71-5.2 61.96-3.22 62.15-1.83 62.35-0.44 62.35-0.1L62.35-0.1 60.25-0.1 57.95-8.54Q57.27-6.84 56.29-5.27 55.32-3.71 54.17-2.54 53.02-1.37 51.75-0.71 50.48-0.05 49.24-0.17 47.99-0.29 46.82-1.32 45.65-2.34 44.65-4.57 43.65-6.79 42.91-10.3 42.18-13.82 41.84-18.95ZM64.2-26.86L64.2-26.86Q64.2-28.42 65.4-29.57 66.59-30.71 68.3-31.42 70.01-32.13 71.87-32.5 73.72-32.86 75.04-32.86L75.04-32.86Q76.36-32.86 77.7-32.42 79.05-31.98 80.07-31.18 81.1-30.37 81.66-29.13 82.22-27.88 82.02-26.27L82.02-26.27Q81.78-23.78 80.39-21.88 79-19.97 76.97-18.68 74.94-17.38 72.58-16.72 70.21-16.06 68.01-16.06L68.01-16.06Q68.01-14.26 68.16-12.48 68.3-10.69 68.47-8.89 68.64-7.08 68.79-5.3 68.94-3.52 68.94-1.71L68.94-1.71Q68.94-1.17 68.84-0.71 68.74-0.24 67.96 0L67.96 0 66.98-0.93Q66.98-0.98 66.84-2.29 66.69-3.61 66.42-5.71 66.15-7.81 65.84-10.47 65.52-13.13 65.23-15.82 64.93-18.51 64.67-21 64.4-23.49 64.2-25.29L64.2-25.29Q64.2-25.34 64.2-25.54 64.2-25.73 64.2-25.98 64.2-26.22 64.2-26.46 64.2-26.71 64.2-26.86ZM66.94-25.1L66.94-25.1Q66.94-24.07 66.96-23.19 66.98-22.31 67.11-21.48 67.23-20.65 67.42-19.78 67.62-18.9 67.96-17.77L67.96-17.77Q69.47-18.02 71.57-18.7 73.67-19.38 75.6-20.56 77.53-21.73 78.85-23.27 80.17-24.8 80.17-26.71L80.17-26.71Q80.17-27.73 79.68-28.54 79.19-29.35 78.43-29.88 77.68-30.42 76.75-30.71 75.82-31.01 74.94-31.01L74.94-31.01Q73.53-31.01 72.09-30.66 70.65-30.32 69.5-29.59 68.35-28.86 67.64-27.73 66.94-26.61 66.94-25.1ZM84.37-37.94L84.37-37.94Q85.05-37.84 85.56-37.57 86.07-37.3 86.37-36.62L86.37-36.62Q86.37-35.69 86.44-34.06 86.51-32.42 86.59-30.27 86.66-28.13 86.76-25.63 86.86-23.14 86.95-20.61 87.05-18.07 87.12-15.58 87.2-13.09 87.27-10.94 87.34-8.79 87.39-7.13 87.44-5.47 87.49-4.59L87.49-4.59Q87.49-4.49 87.47-4.25 87.44-4 87.42-3.66 87.39-3.32 87.37-3 87.34-2.69 87.34-2.54L87.34-2.54Q87.29-2.25 87.29-1.83 87.29-1.42 87.2-1.03 87.1-0.63 86.88-0.32 86.66 0 86.17 0.05L86.17 0.05 85.34-0.98Q85.29-1.03 85.22-2.81 85.15-4.59 85.02-7.45 84.9-10.3 84.8-13.89 84.71-17.48 84.58-21.14 84.46-24.8 84.37-28.17 84.27-31.54 84.22-33.98L84.22-33.98Q84.22-34.18 84.24-34.77 84.27-35.35 84.29-35.96 84.32-36.57 84.34-37.13 84.37-37.7 84.37-37.94ZM90.22-18.95L90.22-18.95Q90.22-19.19 90.54-19.43 90.86-19.68 91.32-19.82 91.78-19.97 92.22-20.02 92.66-20.07 92.86-19.87L92.86-19.87Q93.15-13.82 94.01-10.23 94.86-6.64 95.96-4.98 97.06-3.32 98.33-3.3 99.6-3.27 100.82-4.37 102.04-5.47 103.09-7.37 104.14-9.28 104.8-11.47 105.46-13.67 105.6-15.87 105.75-18.07 105.21-19.78L105.21-19.78 108.14-20.12Q108.19-19.38 108.41-17.7 108.63-16.02 108.9-13.89 109.17-11.77 109.51-9.47 109.85-7.18 110.09-5.2 110.34-3.22 110.53-1.83 110.73-0.44 110.73-0.1L110.73-0.1 108.63-0.1 106.34-8.54Q105.65-6.84 104.68-5.27 103.7-3.71 102.55-2.54 101.4-1.37 100.13-0.71 98.86-0.05 97.62-0.17 96.37-0.29 95.2-1.32 94.03-2.34 93.03-4.57 92.03-6.79 91.3-10.3 90.56-13.82 90.22-18.95ZM115.17-3.96L115.17-3.96Q116.05-3.96 116.81-3.61 117.56-3.27 118.3-2.86 119.03-2.44 119.78-2.12 120.54-1.81 121.42-1.81L121.42-1.81Q122.45-1.81 123.54-2.17 124.64-2.54 125.57-3.2 126.5-3.86 127.08-4.81 127.67-5.76 127.67-6.88L127.67-6.88Q127.72-7.23 127.69-7.71 127.67-8.2 127.38-8.72 127.08-9.23 126.4-9.69 125.72-10.16 124.42-10.4 123.13-10.64 121.18-10.67 119.22-10.69 116.34-10.3L116.34-10.3Q115.61-10.3 114.93-10.72 114.24-11.13 113.71-11.74 113.17-12.35 112.83-13.06 112.49-13.77 112.49-14.4L112.49-14.4Q112.49-16.31 113.29-17.5 114.1-18.7 115.37-19.41 116.64-20.12 118.2-20.41 119.76-20.7 121.37-20.7L121.37-20.7Q122.1-20.7 123.06-20.63 124.01-20.56 124.81-20.24 125.62-19.92 126.18-19.24 126.74-18.55 126.74-17.33L126.74-17.33Q126.65-16.5 126.47-16.33 126.3-16.16 125.99-16.43 125.67-16.7 125.23-17.19 124.79-17.68 124.18-18.14 123.57-18.6 122.71-18.85 121.86-19.09 120.79-18.85L120.79-18.85Q119.66-18.85 118.54-18.63 117.42-18.41 116.51-17.87 115.61-17.33 115.05-16.41 114.49-15.48 114.49-14.06L114.49-14.06Q114.49-13.33 115.15-13.06 115.81-12.79 116.9-12.79 118-12.79 119.39-12.87 120.79-12.94 122.25-12.94 123.72-12.94 125.08-12.72 126.45-12.5 127.5-11.84 128.55-11.18 129.14-9.96 129.72-8.74 129.57-6.79L129.57-6.79Q129.57-5.37 128.77-4.1 127.96-2.83 126.72-1.88 125.47-0.93 123.96-0.39 122.45 0.15 121.03 0L121.03 0Q120.44-0.05 119.44-0.32 118.44-0.59 117.49-1.07 116.54-1.56 115.85-2.27 115.17-2.98 115.17-3.96Z" fill="black"></path></g></svg></g></svg></g><g transform="matrix(1,0,0,1,163.31020799999996,144.2276282837537)"><svg viewBox="0 0 232.20979200000002 11.068041943180626" height="11.068041943180626" width="232.20979200000002"><g transform="matrix(1,0,0,1,0,0)"><svg width="232.20979200000002" viewBox="0.95 -33.48 715.3399999999999 34.11" height="11.068041943180626" data-palette-color="#636365"><path d="M15.5-9.6L11.93-9.6 0.95-31.95 5.33-31.95 11.2-19.73 13.55-14.43 13.88-14.43 16.23-19.73 22.08-31.95 26.48-31.95 15.5-9.6ZM15.75 0L11.68 0 11.68-13.48 15.75-13.48 15.75 0ZM36.5 0.63L36.5 0.63Q31.25 0.63 28.54-2.21 25.82-5.05 25.82-10.38L25.82-10.38 25.82-14.1Q25.82-19.4 28.55-22.23 31.27-25.05 36.5-25.05L36.5-25.05Q41.75-25.05 44.46-22.23 47.17-19.4 47.17-14.1L47.17-14.1 47.17-10.38Q47.17-5.05 44.46-2.21 41.75 0.63 36.5 0.63ZM36.5-2.68L36.5-2.68Q39.75-2.68 41.44-4.6 43.12-6.53 43.12-10.15L43.12-10.15 43.12-14.33Q43.12-17.93 41.44-19.84 39.75-21.75 36.5-21.75L36.5-21.75Q33.27-21.75 31.57-19.84 29.87-17.93 29.87-14.33L29.87-14.33 29.87-10.15Q29.87-6.53 31.57-4.6 33.27-2.68 36.5-2.68ZM52.5-24.4L56.52-24.4 56.52-9.22Q56.52-7.3 57.06-5.86 57.6-4.42 58.82-3.64 60.05-2.85 62.12-2.85L62.12-2.85Q64.07-2.85 65.47-3.56 66.87-4.28 67.76-5.53 68.65-6.78 68.97-8.35L68.97-8.35 69.7-5.48 68.82-5.48Q68.45-3.83 67.45-2.46 66.45-1.1 64.76-0.29 63.07 0.53 60.6 0.53L60.6 0.53Q57.72 0.53 55.93-0.56 54.15-1.65 53.32-3.74 52.5-5.83 52.5-8.78L52.5-8.78 52.5-24.4ZM68.8-24.4L72.84-24.4 72.84 0 68.8 0 68.97-5.85 68.8-6.1 68.8-24.4ZM83.29-14.93L83.29-14.93 82.37-18.05 83.37-18.1Q84.17-21.2 86.12-22.99 88.07-24.78 91.29-24.78L91.29-24.78Q92.09-24.78 92.73-24.65 93.37-24.53 93.87-24.35L93.87-24.35 94.12-20.43Q93.49-20.63 92.73-20.75 91.97-20.88 91.04-20.88L91.04-20.88Q88.29-20.88 86.26-19.35 84.22-17.82 83.29-14.93ZM83.49 0L79.44 0 79.44-24.4 83.39-24.4 83.19-17.2 83.49-16.9 83.49 0ZM124.34-10.63L115.16-10.63 115.16-14.08 124.24-14.08Q127.51-14.08 128.99-15.71 130.46-17.35 130.46-20.23L130.46-20.23 130.46-22.4Q130.46-25.33 129-26.93 127.54-28.53 124.29-28.53L124.29-28.53 115.14-28.53 115.14-31.95 124.36-31.95Q129.71-31.95 132.15-29.44 134.59-26.93 134.59-22.53L134.59-22.53 134.59-20.13Q134.59-15.68 132.13-13.15 129.66-10.63 124.34-10.63L124.34-10.63ZM116.56 0L112.46 0 112.46-31.95 116.54-31.95 116.54-13.05 116.56-11.2 116.56 0ZM157.86 0L153.84 0 154.01-5.93 153.86-6.55 153.86-14.33 153.89-15.75Q153.89-18.73 152.37-20.15 150.86-21.58 147.59-21.58L147.59-21.58Q144.96-21.58 142.77-20.83 140.59-20.08 138.89-19.07L138.89-19.07 139.26-22.53Q140.21-23.1 141.52-23.66 142.84-24.23 144.52-24.6 146.21-24.98 148.24-24.98L148.24-24.98Q150.86-24.98 152.7-24.34 154.54-23.7 155.67-22.5 156.81-21.3 157.34-19.6 157.86-17.9 157.86-15.8L157.86-15.8 157.86 0ZM145.44 0.53L145.44 0.53Q141.81 0.53 139.87-1.24 137.94-3 137.94-6.28L137.94-6.28 137.94-7Q137.94-10.38 140.02-12.04 142.11-13.7 146.66-14.35L146.66-14.35 154.39-15.45 154.61-12.5 147.16-11.43Q144.36-11.03 143.16-10.06 141.96-9.1 141.96-7.23L141.96-7.23 141.96-6.83Q141.96-4.9 143.15-3.88 144.34-2.85 146.71-2.85L146.71-2.85Q148.81-2.85 150.31-3.58 151.81-4.3 152.74-5.53 153.66-6.75 153.99-8.25L153.99-8.25 154.61-5.5 153.84-5.5Q153.49-3.9 152.52-2.53 151.56-1.15 149.84-0.31 148.11 0.53 145.44 0.53ZM172.71 0.5L172.71 0.5Q169.88 0.5 168.16-0.35 166.43-1.2 165.66-2.93 164.88-4.65 164.88-7.23L164.88-7.23 164.88-22.63 168.88-22.63 168.88-7.7Q168.88-5.3 169.98-4.16 171.08-3.03 173.68-3.03L173.68-3.03Q175.16-3.03 176.52-3.35 177.88-3.68 179.08-4.28L179.08-4.28 178.71-0.8Q177.53-0.2 175.96 0.15 174.38 0.5 172.71 0.5ZM178.46-20.8L160.88-20.8 160.88-24.05 178.83-24.05 178.46-20.8ZM168.78-23.65L164.91-23.65 164.88-30.5 168.96-31.03 168.78-23.65ZM203.98 0L199.93 0 199.93-15.18Q199.93-17.15 199.39-18.57 198.86-20 197.64-20.79 196.43-21.58 194.33-21.58L194.33-21.58Q192.41-21.58 191.01-20.85 189.61-20.13 188.74-18.89 187.88-17.65 187.53-16.07L187.53-16.07 186.63-18.95 187.68-18.95Q188.06-20.6 189.06-21.96 190.06-23.33 191.74-24.14 193.43-24.95 195.86-24.95L195.86-24.95Q198.76-24.95 200.54-23.85 202.33-22.75 203.16-20.69 203.98-18.63 203.98-15.63L203.98-15.63 203.98 0ZM187.66 0L183.61 0 183.61-33.13 187.63-33.13 187.63-25.18 187.51-18.18 187.66-17.85 187.66 0ZM233.03 0.5L233.03 0.5Q230.2 0.5 228.48-0.35 226.75-1.2 225.98-2.93 225.2-4.65 225.2-7.23L225.2-7.23 225.2-22.63 229.2-22.63 229.2-7.7Q229.2-5.3 230.3-4.16 231.4-3.03 234-3.03L234-3.03Q235.48-3.03 236.84-3.35 238.2-3.68 239.4-4.28L239.4-4.28 239.03-0.8Q237.85-0.2 236.28 0.15 234.7 0.5 233.03 0.5ZM238.78-20.8L221.2-20.8 221.2-24.05 239.15-24.05 238.78-20.8ZM229.1-23.65L225.23-23.65 225.2-30.5 229.28-31.03 229.1-23.65ZM252.97 0.63L252.97 0.63Q247.72 0.63 245.01-2.21 242.3-5.05 242.3-10.38L242.3-10.38 242.3-14.1Q242.3-19.4 245.02-22.23 247.75-25.05 252.97-25.05L252.97-25.05Q258.22-25.05 260.94-22.23 263.65-19.4 263.65-14.1L263.65-14.1 263.65-10.38Q263.65-5.05 260.94-2.21 258.22 0.63 252.97 0.63ZM252.97-2.68L252.97-2.68Q256.22-2.68 257.91-4.6 259.6-6.53 259.6-10.15L259.6-10.15 259.6-14.33Q259.6-17.93 257.91-19.84 256.22-21.75 252.97-21.75L252.97-21.75Q249.75-21.75 248.05-19.84 246.35-17.93 246.35-14.33L246.35-14.33 246.35-10.15Q246.35-6.53 248.05-4.6 249.75-2.68 252.97-2.68ZM285.29 0L281.09 0 291.09-31.95 297.64-31.95 307.67 0 303.47 0 294.69-29.15 294.07-29.15 285.29 0ZM301.64-9.43L287.09-9.43 287.09-12.88 301.64-12.88 301.64-9.43ZM320.94 0.55L320.94 0.55Q315.69 0.55 313.13-2.29 310.57-5.13 310.57-10.33L310.57-10.33 310.57-14.13Q310.57-19.35 313.14-22.16 315.72-24.98 320.94-24.98L320.94-24.98Q322.49-24.98 323.77-24.69 325.04-24.4 326.05-23.94 327.07-23.48 327.77-22.98L327.77-22.98 328.12-19.45Q326.94-20.35 325.33-20.98 323.72-21.6 321.54-21.6L321.54-21.6Q318.04-21.6 316.33-19.66 314.62-17.73 314.62-14.03L314.62-14.03 314.62-10.43Q314.62-6.8 316.33-4.85 318.04-2.9 321.54-2.9L321.54-2.9Q323.79-2.9 325.43-3.53 327.07-4.15 328.34-5.05L328.34-5.05 327.97-1.48Q326.87-0.73 325.09-0.09 323.32 0.55 320.94 0.55ZM351.74 0L347.71 0 347.89-5.93 347.74-6.55 347.74-14.33 347.76-15.75Q347.76-18.73 346.25-20.15 344.74-21.58 341.46-21.58L341.46-21.58Q338.84-21.58 336.65-20.83 334.46-20.08 332.76-19.07L332.76-19.07 333.14-22.53Q334.09-23.1 335.4-23.66 336.71-24.23 338.4-24.6 340.09-24.98 342.11-24.98L342.11-24.98Q344.74-24.98 346.58-24.34 348.41-23.7 349.55-22.5 350.69-21.3 351.21-19.6 351.74-17.9 351.74-15.8L351.74-15.8 351.74 0ZM339.31 0.53L339.31 0.53Q335.69 0.53 333.75-1.24 331.81-3 331.81-6.28L331.81-6.28 331.81-7Q331.81-10.38 333.9-12.04 335.99-13.7 340.54-14.35L340.54-14.35 348.26-15.45 348.49-12.5 341.04-11.43Q338.24-11.03 337.04-10.06 335.84-9.1 335.84-7.23L335.84-7.23 335.84-6.83Q335.84-4.9 337.03-3.88 338.21-2.85 340.59-2.85L340.59-2.85Q342.69-2.85 344.19-3.58 345.69-4.3 346.61-5.53 347.54-6.75 347.86-8.25L347.86-8.25 348.49-5.5 347.71-5.5Q347.36-3.9 346.4-2.53 345.44-1.15 343.71-0.31 341.99 0.53 339.31 0.53ZM365.99 0.53L365.99 0.53Q361.59 0.53 359.29-2.2 356.99-4.93 356.99-10.15L356.99-10.15 356.99-14.18Q356.99-19.43 359.31-22.19 361.64-24.95 366.16-24.95L366.16-24.95Q368.41-24.95 370.06-24.19 371.71-23.43 372.74-22.05 373.76-20.68 374.11-18.8L374.11-18.8 375.44-18.8 374.24-15.08Q374.16-17.23 373.27-18.69 372.39-20.15 370.87-20.9 369.36-21.65 367.41-21.65L367.41-21.65Q364.31-21.65 362.67-19.85 361.04-18.05 361.04-14.55L361.04-14.55 361.04-9.9Q361.04-6.45 362.67-4.65 364.31-2.85 367.41-2.85L367.41-2.85Q369.26-2.85 370.69-3.56 372.11-4.28 373.05-5.54 373.99-6.8 374.34-8.4L374.34-8.4 375.34-5.5 374.14-5.5Q373.79-3.85 372.8-2.48 371.81-1.1 370.15-0.29 368.49 0.53 365.99 0.53ZM378.19 0L374.14 0 374.31-5.9 374.24-7.2 374.24-17.4 374.26-18.25 374.16-25.18 374.16-33.13 378.19-33.13 378.19 0ZM395.03 0.55L395.03 0.55Q389.46 0.55 386.63-2.18 383.81-4.9 383.81-9.98L383.81-9.98 383.81-14.33Q383.81-19.48 386.43-22.26 389.06-25.05 394.11-25.05L394.11-25.05Q397.51-25.05 399.78-23.79 402.06-22.53 403.21-20.2 404.36-17.88 404.36-14.65L404.36-14.65 404.36-13.75Q404.36-12.95 404.3-12.15 404.23-11.35 404.13-10.58L404.13-10.58 400.41-10.58Q400.46-11.78 400.47-12.85 400.48-13.93 400.48-14.83L400.48-14.83Q400.48-17.05 399.77-18.59 399.06-20.13 397.65-20.94 396.23-21.75 394.11-21.75L394.11-21.75Q390.96-21.75 389.38-19.93 387.81-18.1 387.81-14.7L387.81-14.7 387.81-12.38 387.83-11.88 387.83-9.55Q387.83-8.03 388.28-6.8 388.73-5.58 389.7-4.69 390.66-3.8 392.15-3.34 393.63-2.88 395.68-2.88L395.68-2.88Q398.06-2.88 400.11-3.5 402.16-4.13 403.96-5.2L403.96-5.2 403.58-1.7Q401.96-0.68 399.81-0.06 397.66 0.55 395.03 0.55ZM403.28-10.58L385.93-10.58 385.93-13.63 403.28-13.63 403.28-10.58ZM444.28 0L440.23 0 440.23-15.28Q440.23-17.2 439.74-18.61 439.26-20.03 438.14-20.8 437.03-21.58 435.16-21.58L435.16-21.58Q433.38-21.58 432.08-20.85 430.78-20.13 429.98-18.91 429.18-17.7 428.86-16.15L428.86-16.15 428.23-19.03 428.73-19.03Q429.13-20.6 430.08-21.95 431.03-23.3 432.66-24.13 434.28-24.95 436.68-24.95L436.68-24.95Q439.41-24.95 441.07-23.88 442.73-22.8 443.51-20.74 444.28-18.68 444.28-15.73L444.28-15.73 444.28 0ZM413.81 0L409.76 0 409.76-24.4 413.81-24.4 413.63-18.55 413.81-18.3 413.81 0ZM429.03 0L425.01 0 425.01-15.28Q425.01-17.2 424.52-18.61 424.03-20.03 422.93-20.8 421.83-21.58 419.96-21.58L419.96-21.58Q418.16-21.58 416.86-20.85 415.56-20.13 414.76-18.89 413.96-17.65 413.63-16.07L413.63-16.07 412.88-18.95 413.78-18.95Q414.16-20.6 415.08-21.96 416.01-23.33 417.59-24.14 419.18-24.95 421.46-24.95L421.46-24.95Q424.83-24.95 426.59-23.2 428.36-21.45 428.81-18.1L428.81-18.1Q428.93-17.6 428.98-17.01 429.03-16.43 429.03-15.85L429.03-15.85 429.03 0ZM454.68 0L450.63 0 450.63-24.4 454.68-24.4 454.68 0ZM452.65-28.4L452.65-28.4Q451.4-28.4 450.79-29.06 450.18-29.73 450.18-30.88L450.18-30.88 450.18-31Q450.18-32.18 450.79-32.83 451.4-33.48 452.65-33.48L452.65-33.48Q453.9-33.48 454.53-32.83 455.15-32.18 455.15-31L455.15-31 455.15-30.88Q455.15-29.7 454.53-29.05 453.9-28.4 452.65-28.4ZM470.78 0.55L470.78 0.55Q465.53 0.55 462.96-2.29 460.4-5.13 460.4-10.33L460.4-10.33 460.4-14.13Q460.4-19.35 462.98-22.16 465.55-24.98 470.78-24.98L470.78-24.98Q472.33-24.98 473.6-24.69 474.88-24.4 475.89-23.94 476.9-23.48 477.6-22.98L477.6-22.98 477.95-19.45Q476.78-20.35 475.16-20.98 473.55-21.6 471.38-21.6L471.38-21.6Q467.88-21.6 466.16-19.66 464.45-17.73 464.45-14.03L464.45-14.03 464.45-10.43Q464.45-6.8 466.16-4.85 467.88-2.9 471.38-2.9L471.38-2.9Q473.63-2.9 475.26-3.53 476.9-4.15 478.18-5.05L478.18-5.05 477.8-1.48Q476.7-0.73 474.93-0.09 473.15 0.55 470.78 0.55ZM501.55 0L497.45 0 497.45-31.95 501.55-31.95 501.55 0ZM517.37 0L498.67 0 498.67-3.48 517.37-3.48 517.37 0ZM516.85-14.58L499.8-14.58 499.8-18.03 516.85-18.03 516.85-14.58ZM517.22-28.48L498.65-28.48 498.65-31.95 517.22-31.95 517.22-28.48ZM525.44 0L521.02 0 529.02-13.28 529.02-12.13 521.17-24.4 525.62-24.4 531.77-14.48 532.12-14.48 538.24-24.4 542.69-24.4 534.84-12.13 534.84-13.28 542.84 0 538.42 0 532.12-10.6 531.77-10.6 525.44 0ZM555.59 0.55L555.59 0.55Q550.34 0.55 547.78-2.29 545.21-5.13 545.21-10.33L545.21-10.33 545.21-14.13Q545.21-19.35 547.79-22.16 550.36-24.98 555.59-24.98L555.59-24.98Q557.14-24.98 558.41-24.69 559.69-24.4 560.7-23.94 561.71-23.48 562.41-22.98L562.41-22.98 562.76-19.45Q561.59-20.35 559.98-20.98 558.36-21.6 556.19-21.6L556.19-21.6Q552.69-21.6 550.98-19.66 549.26-17.73 549.26-14.03L549.26-14.03 549.26-10.43Q549.26-6.8 550.98-4.85 552.69-2.9 556.19-2.9L556.19-2.9Q558.44-2.9 560.08-3.53 561.71-4.15 562.99-5.05L562.99-5.05 562.61-1.48Q561.51-0.73 559.74-0.09 557.96 0.55 555.59 0.55ZM577.66 0.55L577.66 0.55Q572.09 0.55 569.26-2.18 566.44-4.9 566.44-9.98L566.44-9.98 566.44-14.33Q566.44-19.48 569.06-22.26 571.69-25.05 576.74-25.05L576.74-25.05Q580.14-25.05 582.41-23.79 584.69-22.53 585.84-20.2 586.99-17.88 586.99-14.65L586.99-14.65 586.99-13.75Q586.99-12.95 586.92-12.15 586.86-11.35 586.76-10.58L586.76-10.58 583.04-10.58Q583.09-11.78 583.1-12.85 583.11-13.93 583.11-14.83L583.11-14.83Q583.11-17.05 582.4-18.59 581.69-20.13 580.27-20.94 578.86-21.75 576.74-21.75L576.74-21.75Q573.59-21.75 572.01-19.93 570.44-18.1 570.44-14.7L570.44-14.7 570.44-12.38 570.46-11.88 570.46-9.55Q570.46-8.03 570.91-6.8 571.36-5.58 572.32-4.69 573.29-3.8 574.77-3.34 576.26-2.88 578.31-2.88L578.31-2.88Q580.69-2.88 582.74-3.5 584.79-4.13 586.59-5.2L586.59-5.2 586.21-1.7Q584.59-0.68 582.44-0.06 580.29 0.55 577.66 0.55ZM585.91-10.58L568.56-10.58 568.56-13.63 585.91-13.63 585.91-10.58ZM596.53 0L592.51 0 592.51-33.13 596.53-33.13 596.53 0ZM607.83 0L603.81 0 603.81-33.13 607.83-33.13 607.83 0ZM624.8 0.55L624.8 0.55Q619.23 0.55 616.4-2.18 613.58-4.9 613.58-9.98L613.58-9.98 613.58-14.33Q613.58-19.48 616.2-22.26 618.83-25.05 623.88-25.05L623.88-25.05Q627.28-25.05 629.55-23.79 631.83-22.53 632.98-20.2 634.13-17.88 634.13-14.65L634.13-14.65 634.13-13.75Q634.13-12.95 634.07-12.15 634-11.35 633.9-10.58L633.9-10.58 630.18-10.58Q630.23-11.78 630.24-12.85 630.25-13.93 630.25-14.83L630.25-14.83Q630.25-17.05 629.54-18.59 628.83-20.13 627.42-20.94 626-21.75 623.88-21.75L623.88-21.75Q620.73-21.75 619.15-19.93 617.58-18.1 617.58-14.7L617.58-14.7 617.58-12.38 617.6-11.88 617.6-9.55Q617.6-8.03 618.05-6.8 618.5-5.58 619.47-4.69 620.43-3.8 621.92-3.34 623.4-2.88 625.45-2.88L625.45-2.88Q627.83-2.88 629.88-3.5 631.93-4.13 633.73-5.2L633.73-5.2 633.35-1.7Q631.73-0.68 629.58-0.06 627.43 0.55 624.8 0.55ZM633.05-10.58L615.7-10.58 615.7-13.63 633.05-13.63 633.05-10.58ZM659.9 0L655.85 0 655.85-15.18Q655.85-17.15 655.31-18.57 654.78-20 653.56-20.79 652.35-21.58 650.25-21.58L650.25-21.58Q648.33-21.58 646.91-20.85 645.5-20.13 644.63-18.89 643.75-17.65 643.4-16.07L643.4-16.07 642.68-18.95 643.55-18.95Q643.95-20.6 644.95-21.96 645.95-23.33 647.64-24.14 649.33-24.95 651.78-24.95L651.78-24.95Q654.68-24.95 656.46-23.85 658.25-22.75 659.08-20.69 659.9-18.63 659.9-15.63L659.9-15.63 659.9 0ZM643.58 0L639.53 0 639.53-24.4 643.58-24.4 643.4-18.55 643.58-18.32 643.58 0ZM675.57 0.55L675.57 0.55Q670.32 0.55 667.76-2.29 665.2-5.13 665.2-10.33L665.2-10.33 665.2-14.13Q665.2-19.35 667.77-22.16 670.35-24.98 675.57-24.98L675.57-24.98Q677.12-24.98 678.4-24.69 679.67-24.4 680.69-23.94 681.7-23.48 682.4-22.98L682.4-22.98 682.75-19.45Q681.57-20.35 679.96-20.98 678.35-21.6 676.17-21.6L676.17-21.6Q672.67-21.6 670.96-19.66 669.25-17.73 669.25-14.03L669.25-14.03 669.25-10.43Q669.25-6.8 670.96-4.85 672.67-2.9 676.17-2.9L676.17-2.9Q678.42-2.9 680.06-3.53 681.7-4.15 682.97-5.05L682.97-5.05 682.6-1.48Q681.5-0.73 679.72-0.09 677.95 0.55 675.57 0.55ZM697.65 0.55L697.65 0.55Q692.07 0.55 689.25-2.18 686.42-4.9 686.42-9.98L686.42-9.98 686.42-14.33Q686.42-19.48 689.05-22.26 691.67-25.05 696.72-25.05L696.72-25.05Q700.12-25.05 702.4-23.79 704.67-22.53 705.82-20.2 706.97-17.88 706.97-14.65L706.97-14.65 706.97-13.75Q706.97-12.95 706.91-12.15 706.85-11.35 706.75-10.58L706.75-10.58 703.02-10.58Q703.07-11.78 703.08-12.85 703.1-13.93 703.1-14.83L703.1-14.83Q703.1-17.05 702.38-18.59 701.67-20.13 700.26-20.94 698.85-21.75 696.72-21.75L696.72-21.75Q693.57-21.75 692-19.93 690.42-18.1 690.42-14.7L690.42-14.7 690.42-12.38 690.45-11.88 690.45-9.55Q690.45-8.03 690.9-6.8 691.35-5.58 692.31-4.69 693.27-3.8 694.76-3.34 696.25-2.88 698.3-2.88L698.3-2.88Q700.67-2.88 702.72-3.5 704.77-4.13 706.57-5.2L706.57-5.2 706.2-1.7Q704.57-0.68 702.42-0.06 700.27 0.55 697.65 0.55ZM705.9-10.58L688.55-10.58 688.55-13.63 705.9-13.63 705.9-10.58ZM713.77 0.48L713.77 0.48Q712.47 0.48 711.86-0.24 711.24-0.95 711.24-2.25L711.24-2.25 711.24-2.5Q711.24-3.78 711.86-4.48 712.47-5.18 713.77-5.18L713.77-5.18Q715.04-5.18 715.67-4.48 716.29-3.78 716.29-2.5L716.29-2.5 716.29-2.25Q716.29-0.95 715.67-0.24 715.04 0.48 713.77 0.48Z" opacity="1" transform="matrix(1,0,0,1,0,0)" fill="black" class="slogan-text-1" id="SvgjsPath4407"></path></svg></g></svg></g></svg></g></svg></g><g transform="matrix(1,0,0,1,450.61156649706885,0)"><svg viewBox="0 0 181.07129659120702 181.07129659120702" height="181.07129659120702" width="181.07129659120702"><g><svg></svg></g><g id="SvgjsG4406"><svg viewBox="0 0 181.07129659120702 181.07129659120702" height="181.07129659120702" width="181.07129659120702"><g><path d="M0 90.536c0-50.001 40.534-90.536 90.536-90.536 50.001 0 90.536 40.534 90.535 90.536 0 50.001-40.534 90.536-90.535 90.535-50.001 0-90.536-40.534-90.536-90.535zM90.536 170.549c44.19 0 80.013-35.823 80.013-80.013 0-44.19-35.823-80.013-80.013-80.014-44.19 0-80.013 35.823-80.014 80.014 0 44.19 35.823 80.013 80.014 80.013z" fill="black" stroke="transparent"></path></g><g transform="matrix(1,0,0,1,48.02442713055326,40.957783339330305)"><svg viewBox="0 0 85.02244233010049 99.1557299125464" height="99.1557299125464" width="85.02244233010049"><g><svg xmlns="http://www.w3.org/2000/svg" xmlns:xlink="http://www.w3.org/1999/xlink" version="1.1" x="0" y="0" viewBox="11.458035230197366 5 77.08598960662668 89.9" enable-background="new 0 0 100 100" xml:space="preserve" height="99.1557299125464" width="85.02244233010049" class="icon-dxe-0" data-fill-palette-color="accent" id="SvgjsSvg4405"><g fill="black"><path fill="black" d="M52.2 88.5V88.2H48.3C48.3 88.3 48.3 88.5 48.4 88.7 48.4 89.3 48.4 89.8 48.2 90.3 49.6 90.4 51.1 90.4 52.5 90.3 52.2 89.7 52.1 89.1 52.2 88.5"></path><path fill="black" d="M43.2 86.6C42.9 86.2 42.4 85.6 41.6 85.6 41.4 85.6 41.1 85.6 40.9 85.8 40.5 86 40.2 86.4 40 86.9 39.6 86.4 39 86 38.1 86 37.8 86 37.4 86.1 36.9 86.2 36.5 86.4 36.2 86.8 36 87.3 35.6 87.1 35 86.7 34.2 86.7 33.9 86.7 33.6 86.7 33.3 86.8 31.6 87.3 31.1 93.9 36.4 94.9 36.4 94.9 37.4 94.9 37.7 94 38.2 94.5 38.7 94.8 39.4 94.9 39.4 94.9 40.2 94.8 40.5 93.8 40.9 94.3 41.3 94.6 41.8 94.6H42.1C43 94.4 43.5 93.6 43.7 92.5 44.7 91.8 46.4 90.4 46.3 88.7 46.1 86.8 43.8 86.6 43.2 86.6"></path><path fill="black" d="M67.1 86.7C66.8 86.6 66.5 86.6 66.2 86.6 65.4 86.6 64.8 87 64.4 87.2 64.2 86.6 63.9 86.2 63.5 86.1 63.1 85.9 62.7 85.9 62.3 85.9 61.5 85.9 60.9 86.3 60.5 86.7 60.3 86.2 60 85.8 59.6 85.6 59.3 85.5 59.1 85.4 58.9 85.4 58.1 85.4 57.6 86 57.3 86.4 56.6 86.4 54.3 86.6 54.2 88.6 54.1 90.3 55.7 91.7 56.8 92.4 57 93.5 57.5 94.3 58.4 94.5H58.7C59.2 94.5 59.7 94.2 60 93.7 60.3 94.7 61.1 94.8 61.1 94.8 61.7 94.7 62.3 94.4 62.8 93.9 63.1 94.7 64.1 94.8 64.1 94.8 69.3 93.8 68.9 87.3 67.1 86.7"></path><path fill="black" d="M85 49.4C84.6 49.2 84.2 49 83.8 48.9 83.7 48.9 83 48.7 82.1 48.7 79.7 48.8 75 50.4 72.5 60.8 69.3 73.7 75.4 78.7 75.4 78.7S82.7 78.1 86.7 66.3C90.2 55.7 88.2 51.2 85 49.4"></path><path fill="black" d="M27.6 61.4C24.6 51.2 20 49.7 17.5 49.7 16.5 49.7 15.9 49.9 15.9 49.9 12.1 51.3 9.3 55.8 13.7 67.4 18.1 79.1 25.5 79.3 25.5 79.3S31.3 74.1 27.6 61.4"></path><circle fill="black" cx="41.4" cy="46.3" r="2.3"></circle><circle fill="black" cx="58.5" cy="46.3" r="2.3"></circle><polygon fill="black" points="45.9,70.5 40,70.5 43,73.1  "></polygon><polygon fill="black" points="50.7,73.1 53.6,70.5 47.7,70.5  "></polygon><polygon fill="black" points="50.8,82.4 53.7,79.8 47.8,79.8  "></polygon><polygon fill="black" points="44,75.2 47,77.9 49.9,75.2  "></polygon><polygon fill="black" points="54.5,77.9 57.4,75.2 51.5,75.2  "></polygon><polygon fill="black" points="61.3,70.5 55.4,70.5 58.4,73.1  "></polygon><polygon fill="black" points="27.3,38.7 25.9,32.2 23.4,32.2 21.9,38.7 22,38.7 21.9,39 27.3,39 27.3,38.7 27.3,38.7  "></polygon><path fill="black" d="M71 60.4C73.6 49.9 78.4 47.5 81.5 47.2 79.1 37.5 73.7 32.2 73.7 32.2V24.4L50.4 36.2 49.5 36.7 48.6 36.2 27.9 25.5V31.9L29.3 38.3 29.9 40.8H21.1C20.1 42.9 19.3 45.4 18.6 48.3 21.6 48.7 26.2 51.1 29.1 61 33 74.5 26.8 80.3 26.5 80.6L26.3 80.8C28 82.7 30 84.3 31.9 85.5 32.1 85.3 32.4 85.2 32.7 85.1 33.2 84.9 33.7 84.9 34.2 84.9 34.6 84.9 35 85 35.3 85 35.6 84.8 35.9 84.6 36.1 84.5S36.6 84.3 36.8 84.3C35.2 82.3 34.3 79.3 34.3 75 34.3 67 41.5 61.1 50.3 61.1S66.3 67.1 66.3 75C66.3 79.3 65.4 82.2 63.8 84.2 63.9 84.2 64.1 84.3 64.2 84.3 64.5 84.4 64.7 84.6 65 84.8 65.3 84.7 65.7 84.7 66.1 84.7 66.6 84.7 67.1 84.8 67.6 84.9 67.9 85 68.2 85.2 68.5 85.4 70.6 84.1 72.7 82.3 74.5 80.2L74.3 80C74.2 79.6 67.7 74 71 60.4M39.1 56.4C33.5 56.4 29 51.9 29 46.3S33.5 36.2 39.1 36.2 49.2 40.7 49.2 46.3 44.7 56.4 39.1 56.4M50.3 59.5L47.2 55.7S48.2 53.6 50 53.6 53.1 55.4 53.1 55.4zM61.7 56.4C56.1 56.4 51.6 51.9 51.6 46.3S56.1 36.2 61.7 36.2 71.8 40.7 71.8 46.3 67.3 56.4 61.7 56.4"></path><polygon fill="black" points="23.4,20.8 23.4,30.1 25.8,30.1 25.8,22.1 49.5,34.4 76.5,20.5 79.6,18.6 49.5,5 19.3,18.6    20.5,19.4  "></polygon></g></svg></g></svg></g></svg></g></svg></g></svg></g><defs><mask></mask></defs></svg><rect width="395.52" height="113.37543475157706" fill="black" stroke="none" visibility="hidden"></rect></g></mask></svg><rect width="395.52" height="113.37543475157706" fill="black" stroke="none" visibility="hidden"></rect></g></mask><linearGradient x1="0" x2="1" y1="0.5" y2="0.5" id="0c9bada4-b0d2-4434-86f7-1ddaa16746f8"><stop stop-color="#f00b51" offset="0"></stop><stop stop-color="#730062" offset="1"></stop></linearGradient><rect width="395.52" height="113.37543475157706" fill="url(#0c9bada4-b0d2-4434-86f7-1ddaa16746f8)" mask="url(#e891ba75-45da-4203-928b-2b7bdf6771d2)" data-fill-palette-color="accent"></rect></svg><rect width="395.52" height="113.37543475157706" fill="none" stroke="none" visibility="hidden"></rect></g></svg></g></svg>